<svg width="104" height="104" viewBox="0 0 104 104" fill="none" xmlns="http://www.w3.org/2000/svg">
<rect x="0.625977" y="0.000244141" width="103.13" height="103.13" rx="51.5652" fill="url(#paint0_linear_90_7292)"/>
<g clip-path="url(#clip0_90_7292)">
<g clip-path="url(#clip1_90_7292)">
<path d="M59.0669 42.3179H59.0897M59.0669 56.0686C66.6612 56.0686 72.8176 49.9122 72.8176 42.3179C72.8176 34.7235 66.6612 28.5671 59.0669 28.5671C51.4725 28.5671 45.3161 34.7235 45.3161 42.3179C45.3161 42.9451 45.3581 43.5625 45.4394 44.1673C45.5733 45.1624 45.6402 45.6598 45.5951 45.9747C45.5482 46.3025 45.4885 46.4792 45.327 46.7683C45.1718 47.0459 44.8983 47.3192 44.3515 47.8659L32.6394 59.5781C32.2431 59.9745 32.0449 60.1727 31.9031 60.404C31.7775 60.6091 31.6849 60.8325 31.6288 61.0664C31.5654 61.3301 31.5654 61.6105 31.5654 62.171V66.1525C31.5654 67.436 31.5654 68.0778 31.8152 68.568C32.0349 68.9992 32.3855 69.3497 32.8168 69.5696C33.307 69.8193 33.9488 69.8193 35.2323 69.8193H39.2137C39.7743 69.8193 40.0545 69.8193 40.3183 69.756C40.5521 69.6998 40.7757 69.6072 40.9807 69.4815C41.212 69.3399 41.4102 69.1417 41.8066 68.7454L53.5188 57.0332C54.0656 56.4864 54.3389 56.213 54.6165 56.0578C54.9056 55.8962 55.0823 55.8365 55.41 55.7896C55.7249 55.7446 56.2224 55.8114 57.2174 55.9453C57.8223 56.0266 58.4397 56.0686 59.0669 56.0686Z" stroke="white" stroke-width="4.2971" stroke-linecap="round" stroke-linejoin="round"/>
</g>
</g>
<defs>
<linearGradient id="paint0_linear_90_7292" x1="52.1912" y1="0.000244141" x2="52.1912" y2="103.131" gradientUnits="userSpaceOnUse">
<stop stop-color="#004426"/>
<stop offset="1" stop-color="#002C18"/>
</linearGradient>
<clipPath id="clip0_90_7292">
<rect width="55.0029" height="55.0029" fill="white" transform="translate(24.6904 21.6919)"/>
</clipPath>
<clipPath id="clip1_90_7292">
<rect width="55.0029" height="55.0029" fill="white" transform="translate(24.6904 21.6919)"/>
</clipPath>
</defs>
</svg>
