<svg width="104" height="104" viewBox="0 0 104 104" fill="none" xmlns="http://www.w3.org/2000/svg">
<rect x="0.630859" y="0.000244141" width="103.13" height="103.13" rx="51.5652" fill="url(#paint0_linear_90_7318)"/>
<g clip-path="url(#clip0_90_7318)">
<g clip-path="url(#clip1_90_7318)">
<g clip-path="url(#clip2_90_7318)">
<mask id="mask0_90_7318" style="mask-type:luminance" maskUnits="userSpaceOnUse" x="31" y="28" width="42" height="42">
<path d="M72.8225 28.5676H31.5703V69.8198H72.8225V28.5676Z" fill="white"/>
</mask>
<g mask="url(#mask0_90_7318)">
<path d="M46.5573 57.7547C48.2158 56.3222 49.2689 54.1931 49.2689 51.8201C49.2689 47.5166 45.8056 44.0156 41.5486 44.0156C37.2916 44.0156 33.8282 47.5168 33.8282 51.8201C33.8282 54.1931 34.8813 56.3221 36.5398 57.7547C33.5703 59.4852 31.5703 62.7046 31.5703 66.3824V68.208C31.5703 69.098 32.2917 69.8194 33.1817 69.8194H49.9153C50.8053 69.8194 51.5267 69.098 51.5267 68.208V66.3824C51.5267 62.7046 49.5267 59.4852 46.5573 57.7547ZM41.5486 47.2383C44.0285 47.2383 46.046 49.2937 46.046 51.8201C46.046 54.3462 44.0285 56.4016 41.5486 56.4016C39.0686 56.4016 37.0511 54.3462 37.0511 51.8201C37.0511 49.2937 39.0685 47.2383 41.5486 47.2383ZM48.3039 66.5966H34.7931V66.3824C34.7931 62.6574 37.8236 59.627 41.5486 59.627C45.2734 59.627 48.3039 62.6574 48.3039 66.3824L48.3039 66.5966Z" fill="#E4E4E8"/>
<path d="M63.272 58.7561C62.6426 58.1269 61.6223 58.1269 60.9932 58.7561C60.4982 59.2512 60.3925 59.988 60.6763 60.5864H58.13C57.24 60.5864 56.5186 61.3077 56.5186 62.1978C56.5186 63.0878 57.24 63.8092 58.13 63.8092H60.6763C60.3925 64.4075 60.4982 65.1444 60.9932 65.6394C61.3079 65.9539 61.7203 66.1112 62.1326 66.1112C62.5452 66.1112 62.9575 65.9539 63.2722 65.6392L65.5743 63.3372C66.2035 62.7077 66.2035 61.6876 65.5743 61.0583L63.272 58.7561Z" fill="#E4E4E8"/>
<path d="M41.1207 39.631C41.4354 39.9458 41.8477 40.103 42.2602 40.103C42.6726 40.103 43.085 39.9457 43.3996 39.631C43.8947 39.1361 44.0003 38.3991 43.7166 37.8009H46.2628C47.1528 37.8009 47.8742 37.0794 47.8742 36.1895C47.8742 35.2995 47.1528 34.5781 46.2628 34.5781H43.7165C44.0003 33.9797 43.8946 33.2428 43.3995 32.7478C42.7702 32.1186 41.7499 32.1186 41.1207 32.7478L38.8186 35.0501C38.1894 35.6795 38.1894 36.6997 38.8186 37.329L41.1207 39.631Z" fill="#E4E4E8"/>
<path d="M71.2112 51.1487H56.089V50.9344C56.089 47.2095 59.1195 44.1791 62.8446 44.1791C64.4998 44.1791 66.0922 44.7837 67.3282 45.8815C67.9936 46.4723 69.012 46.4121 69.6031 45.7467C70.194 45.0812 70.1337 44.0627 69.4683 43.4718C68.9673 43.0268 68.4267 42.6367 67.8554 42.3048C69.5127 40.8723 70.5648 38.7441 70.5648 36.3722C70.5648 32.0687 67.1015 28.5676 62.8444 28.5676C58.5874 28.5676 55.1241 32.0687 55.1241 36.3721C55.1241 38.7451 56.1772 40.8741 57.8357 42.3067C54.8663 44.0373 52.8662 47.2566 52.8662 50.9344V52.7601C52.8662 53.6501 53.5878 54.3715 54.4776 54.3715H71.2112C72.1012 54.3715 72.8226 53.6501 72.8226 52.7601C72.8226 51.8701 72.1012 51.1487 71.2112 51.1487ZM62.8444 31.7905C65.3244 31.7905 67.3419 33.8458 67.3419 36.3721C67.3419 38.8984 65.3244 40.9537 62.8444 40.9537C60.3645 40.9537 58.3469 38.8984 58.3469 36.3721C58.3469 33.8458 60.3645 31.7905 62.8444 31.7905Z" fill="#E4E4E8"/>
</g>
</g>
</g>
</g>
<defs>
<linearGradient id="paint0_linear_90_7318" x1="52.1961" y1="0.000244141" x2="52.1961" y2="103.131" gradientUnits="userSpaceOnUse">
<stop stop-color="#004426"/>
<stop offset="1" stop-color="#002C18"/>
</linearGradient>
<clipPath id="clip0_90_7318">
<rect width="41.2522" height="41.2522" fill="white" transform="translate(31.5713 28.5671)"/>
</clipPath>
<clipPath id="clip1_90_7318">
<rect width="41.2522" height="41.2522" fill="white" transform="translate(31.5713 28.5671)"/>
</clipPath>
<clipPath id="clip2_90_7318">
<rect width="41.2522" height="41.2522" fill="white" transform="translate(31.5713 28.5671)"/>
</clipPath>
</defs>
</svg>
