<svg width="810" height="338" viewBox="0 0 810 338" fill="none" xmlns="http://www.w3.org/2000/svg">
<g clip-path="url(#clip0_90_7637)">
<rect width="810" height="338" rx="35" fill="black"/>
<g filter="url(#filter0_f_90_7637)">
<ellipse cx="192" cy="-109.5" rx="189" ry="75.5" fill="#00FF76"/>
</g>
<g opacity="0.44">
<path d="M652.842 48.0411C653.148 48.0407 653.454 48.0403 653.769 48.0399C654.616 48.0388 655.463 48.0391 656.31 48.0397C657.232 48.0401 658.154 48.0391 659.076 48.0383C660.691 48.0371 662.307 48.0367 663.922 48.037C666.324 48.0373 668.727 48.0364 671.129 48.0351C675.669 48.0328 680.209 48.0321 684.749 48.032C688.255 48.0319 691.762 48.0314 695.268 48.0306C696.277 48.0304 697.286 48.0302 698.295 48.03C698.672 48.0299 698.672 48.0299 699.056 48.0298C706.113 48.0284 713.17 48.0274 720.227 48.0275C720.493 48.0275 720.759 48.0275 721.033 48.0275C722.382 48.0276 723.73 48.0276 725.079 48.0276C725.48 48.0276 725.48 48.0276 725.89 48.0276C726.432 48.0276 726.973 48.0276 727.515 48.0277C735.942 48.0278 744.369 48.026 752.796 48.0228C762.263 48.0191 771.731 48.0171 781.199 48.0173C782.208 48.0173 783.218 48.0173 784.227 48.0173C784.6 48.0173 784.6 48.0173 784.981 48.0173C788.981 48.0173 792.981 48.0158 796.981 48.0138C801.001 48.0117 805.021 48.0115 809.041 48.0131C811.428 48.0139 813.816 48.0135 816.204 48.0112C817.8 48.0098 819.396 48.0101 820.992 48.0118C821.901 48.0127 822.809 48.0129 823.718 48.0109C824.699 48.0089 825.679 48.0105 826.66 48.0125C826.94 48.0113 827.219 48.0101 827.507 48.0089C831.384 48.0255 835.34 48.4934 838.219 51.3665C839.791 53.2212 840.061 54.9802 839.938 57.3492C839.709 60.1069 838.149 61.6726 836.283 63.5543C835.962 63.8836 835.64 64.2129 835.319 64.5423C834.727 65.1477 834.133 65.7504 833.539 66.3531C833.421 66.4736 833.303 66.5941 833.181 66.7182C832.841 67.063 832.5 67.4059 832.159 67.7487C831.959 67.9501 831.76 68.1514 831.554 68.3589C831.062 68.7946 828.88 71.0841 830.587 68.7946C830.526 68.937 830.465 69.0795 830.401 69.2263C830.089 69.7907 829.797 70.0614 829.297 70.4619C828.059 71.5134 826.997 72.7128 825.919 73.9233C825.636 74.2376 825.345 74.5456 825.054 74.8527C820.22 79.9989 817.973 85.8321 817.974 92.8827C817.974 93.2511 817.973 93.6194 817.972 93.9878C817.969 94.9972 817.968 96.0067 817.968 97.0162C817.967 98.106 817.965 99.1959 817.963 100.286C817.958 102.916 817.956 105.547 817.953 108.177C817.952 109.417 817.951 110.657 817.95 111.897C817.946 116.021 817.942 120.146 817.941 124.27C817.94 125.339 817.94 126.409 817.939 127.478C817.939 127.744 817.939 128.009 817.939 128.283C817.937 132.587 817.931 136.891 817.923 141.195C817.915 145.618 817.911 150.041 817.91 154.464C817.91 156.945 817.908 159.427 817.902 161.909C817.897 164.022 817.895 166.136 817.897 168.25C817.898 169.327 817.898 170.404 817.893 171.481C817.889 172.47 817.889 173.458 817.893 174.447C817.893 174.802 817.892 175.157 817.889 175.513C817.866 178.649 818.326 181.8 819.819 184.601C819.899 184.756 819.979 184.911 820.061 185.071C821.63 188.001 823.802 190.557 826.553 192.417C825.748 193.279 824.855 193.964 823.913 194.665C823.746 194.789 823.58 194.913 823.409 195.042C822.008 196.086 820.595 197.111 819.178 198.134C817.872 199.077 816.574 200.032 815.28 200.992C813.823 202.072 812.36 203.145 810.89 204.207C807.789 206.45 804.713 208.723 801.678 211.055C800.197 212.194 798.708 213.316 797.183 214.396C794.45 216.334 791.764 218.341 789.121 220.401C788.533 220.856 787.94 221.303 787.344 221.748C787.173 221.876 787.002 222.004 786.825 222.136C786.491 222.384 786.157 222.632 785.823 222.879C785.169 223.367 784.567 223.837 783.991 224.418C783.597 224.811 783.597 224.811 783.123 224.811C783.123 177.727 783.123 130.644 783.123 82.1334C774.273 82.1334 765.423 82.1334 756.305 82.1334C756.307 84.9459 756.307 84.9459 756.31 87.8153C756.32 100.2 756.329 112.585 756.335 124.969C756.335 125.181 756.335 125.392 756.335 125.61C756.338 130.204 756.34 134.799 756.341 139.393C756.342 141.646 756.343 143.899 756.344 146.152C756.344 146.376 756.344 146.6 756.344 146.831C756.347 154.096 756.353 161.361 756.359 168.626C756.366 176.093 756.37 183.559 756.372 191.026C756.372 192.081 756.372 193.136 756.373 194.191C756.373 194.399 756.373 194.607 756.373 194.82C756.374 198.161 756.377 201.501 756.381 204.841C756.385 208.2 756.387 211.56 756.386 214.919C756.385 216.914 756.387 218.909 756.391 220.904C756.394 222.395 756.393 223.886 756.391 225.378C756.391 225.98 756.392 226.582 756.394 227.184C756.416 233.419 755.677 238.614 751.247 243.33C747.981 246.479 743.691 248.06 739.192 247.998C734.649 247.832 730.666 245.664 727.559 242.407C723.23 237.297 722.97 230.995 722.994 224.607C722.994 223.991 722.993 223.374 722.992 222.757C722.991 221.423 722.992 220.089 722.995 218.754C722.999 216.77 722.999 214.786 722.999 212.802C722.998 209.463 723 206.125 723.004 202.786C723.009 199.483 723.011 196.18 723.012 192.877C723.012 192.671 723.012 192.465 723.012 192.253C723.012 191.208 723.013 190.163 723.013 189.118C723.014 181.725 723.019 174.332 723.026 166.94C723.032 159.76 723.038 152.58 723.041 145.4C723.041 145.068 723.041 145.068 723.041 144.729C723.042 142.505 723.043 140.28 723.044 138.056C723.045 133.525 723.047 128.993 723.049 124.462C723.05 124.254 723.05 124.046 723.05 123.831C723.056 109.932 723.068 96.0326 723.08 82.1334C714.386 82.1334 705.693 82.1334 696.737 82.1334C696.737 129.531 696.737 176.929 696.737 225.764C696.11 225.292 695.484 224.82 694.838 224.335C694.137 223.812 693.435 223.291 692.732 222.771C692.536 222.626 692.34 222.481 692.138 222.332C691.011 221.499 689.879 220.673 688.741 219.855C686.783 218.445 684.86 216.996 682.947 215.526C680.324 213.512 677.666 211.549 674.983 209.617C672.994 208.184 671.04 206.711 669.097 205.215C667.837 204.247 666.564 203.305 665.266 202.39C663.744 201.31 662.271 200.165 660.792 199.027C659.735 198.215 658.675 197.409 657.593 196.63C656.046 195.515 654.158 193.916 652.667 192.727C653.26 192.205 653.811 191.921 654.537 191.404C655.634 190.575 656.492 189.685 657.341 188.606C657.576 188.307 657.576 188.307 657.815 188.003C660.281 184.74 661.875 180.949 661.882 176.807C661.883 176.341 661.883 176.341 661.885 175.866C661.885 175.523 661.885 175.18 661.885 174.837C661.886 174.471 661.887 174.105 661.888 173.739C661.89 172.735 661.891 171.73 661.891 170.725C661.892 169.641 661.895 168.558 661.897 167.474C661.901 164.856 661.904 162.239 661.906 159.621C661.907 158.387 661.908 157.154 661.909 155.92C661.913 151.817 661.917 147.714 661.919 143.61C661.919 142.546 661.92 141.481 661.92 140.417C661.92 140.02 661.92 140.02 661.92 139.615C661.922 135.333 661.928 131.051 661.936 126.769C661.944 122.369 661.948 117.969 661.949 113.569C661.949 111.1 661.952 108.631 661.958 106.162C661.963 104.058 661.965 101.955 661.962 99.8513C661.961 98.7794 661.962 97.7075 661.966 96.6355C661.971 95.6514 661.97 94.6674 661.967 93.6833C661.966 93.33 661.967 92.9767 661.97 92.6234C662.023 85.6224 658.963 79.9625 654.344 74.8964C654.034 74.5529 653.725 74.2079 653.424 73.8565C652.298 72.5426 651.103 71.3118 649.88 70.0897C649.688 69.8964 649.497 69.7032 649.299 69.504C648.283 68.4857 647.248 67.508 646.16 66.5677C643.27 64.0302 640.036 61.0341 639.731 56.9566C639.693 54.5371 640.097 52.8297 641.661 50.9478C644.592 48.0005 648.966 48.0344 652.842 48.0411Z" fill="url(#paint0_linear_90_7637)"/>
<path d="M636.083 -17.9381C636.387 -17.9388 636.692 -17.9395 637.005 -17.9403C637.342 -17.9399 637.679 -17.9395 638.016 -17.939C638.376 -17.9394 638.737 -17.9399 639.097 -17.9405C640.09 -17.9418 641.084 -17.9417 642.077 -17.9413C643.157 -17.9411 644.236 -17.9423 645.316 -17.9433C647.459 -17.9451 649.601 -17.9456 651.744 -17.9458C654.31 -17.946 656.876 -17.9476 659.441 -17.9492C665.643 -17.953 671.845 -17.9544 678.047 -17.9555C680.98 -17.9561 683.913 -17.957 686.846 -17.9579C696.884 -17.9609 706.922 -17.9635 716.96 -17.9643C717.59 -17.9643 718.22 -17.9644 718.851 -17.9644C719.482 -17.9645 720.114 -17.9646 720.746 -17.9646C721.855 -17.9647 722.963 -17.9648 724.072 -17.9649C724.39 -17.9649 724.707 -17.9649 725.024 -17.965C735.216 -17.9658 745.409 -17.9694 755.601 -17.975C766.532 -17.9809 777.463 -17.9843 788.394 -17.9846C789.577 -17.9847 790.759 -17.9847 791.941 -17.9848C792.232 -17.9848 792.523 -17.9848 792.823 -17.9848C797.511 -17.9851 802.199 -17.9877 806.886 -17.9912C811.597 -17.9946 816.307 -17.9954 821.017 -17.9935C823.816 -17.9924 826.616 -17.9933 829.415 -17.9971C831.284 -17.9994 833.154 -17.9991 835.023 -17.9967C836.089 -17.9955 837.154 -17.9953 838.22 -17.9983C839.19 -18.001 840.16 -18.0004 841.13 -17.9972C841.478 -17.9966 841.826 -17.9972 842.174 -17.9992C848.231 -18.0312 853.808 -15.4242 858.144 -11.2392C859.27 -10.0992 860.153 -8.80524 860.965 -7.42721C861.051 -7.28198 861.136 -7.13675 861.225 -6.98712C863.924 -2.28969 864.702 3.41008 863.348 8.69175C862.269 12.1473 860.944 15.2654 858.592 18.0594C858.436 18.2504 858.28 18.4414 858.12 18.6382C856.712 20.2965 855.132 21.5701 853.371 22.8233C853.09 23.0255 853.09 23.0255 852.804 23.2317C851.532 24.0719 850.162 24.6115 848.743 25.1457C848.557 25.2157 848.371 25.2858 848.179 25.358C845.643 26.273 843.274 26.4659 840.588 26.4575C840.232 26.4581 839.876 26.4589 839.52 26.46C838.542 26.4622 837.565 26.4615 836.588 26.4603C835.524 26.4596 834.46 26.4615 833.396 26.4631C831.532 26.4656 829.668 26.4663 827.803 26.4658C825.031 26.4651 822.259 26.467 819.487 26.4695C814.247 26.4741 809.008 26.4755 803.768 26.4758C799.721 26.476 795.675 26.477 791.628 26.4785C790.464 26.4789 789.299 26.4793 788.135 26.4798C787.7 26.4799 787.7 26.4799 787.257 26.4801C779.112 26.483 770.967 26.4849 762.823 26.4847C762.515 26.4847 762.208 26.4847 761.892 26.4846C760.335 26.4846 758.779 26.4846 757.222 26.4845C756.913 26.4845 756.604 26.4845 756.285 26.4845C755.66 26.4845 755.035 26.4844 754.41 26.4844C744.684 26.4841 734.959 26.4877 725.234 26.4942C714.307 26.5015 703.381 26.5056 692.455 26.5052C691.29 26.5052 690.125 26.5051 688.959 26.5051C688.673 26.5051 688.386 26.5051 688.09 26.5051C683.474 26.5051 678.858 26.5081 674.242 26.5122C669.602 26.5163 664.962 26.5167 660.322 26.5136C657.567 26.5119 654.811 26.5127 652.055 26.5174C650.213 26.5203 648.371 26.5196 646.528 26.5162C645.48 26.5144 644.431 26.514 643.382 26.5179C635.107 26.5464 628.313 25.2826 622.204 19.2448C618.121 14.7692 615.804 8.98335 616.013 2.91126C616.174 0.144758 616.501 -2.76643 617.708 -5.28348C617.773 -5.42149 617.838 -5.55951 617.905 -5.70171C618.868 -7.71183 619.912 -9.41875 621.505 -11.0001C621.701 -11.2064 621.896 -11.4128 622.098 -11.6254C622.294 -11.812 622.49 -11.9987 622.691 -12.1911C622.827 -12.3203 622.962 -12.4496 623.102 -12.5828C626.504 -15.7108 631.441 -17.9359 636.083 -17.9381Z" fill="url(#paint1_linear_90_7637)"/>
</g>
</g>
<defs>
<filter id="filter0_f_90_7637" x="-497.2" y="-685.2" width="1378.4" height="1151.4" filterUnits="userSpaceOnUse" color-interpolation-filters="sRGB">
<feFlood flood-opacity="0" result="BackgroundImageFix"/>
<feBlend mode="normal" in="SourceGraphic" in2="BackgroundImageFix" result="shape"/>
<feGaussianBlur stdDeviation="250.1" result="effect1_foregroundBlur_90_7637"/>
</filter>
<linearGradient id="paint0_linear_90_7637" x1="740" y1="-67.875" x2="740" y2="248" gradientUnits="userSpaceOnUse">
<stop stop-color="#031D11" stop-opacity="0"/>
<stop offset="1" stop-color="#052718"/>
</linearGradient>
<linearGradient id="paint1_linear_90_7637" x1="740" y1="-67.875" x2="740" y2="248" gradientUnits="userSpaceOnUse">
<stop stop-color="#031D11" stop-opacity="0"/>
<stop offset="1" stop-color="#052718"/>
</linearGradient>
<clipPath id="clip0_90_7637">
<rect width="810" height="338" rx="35" fill="white"/>
</clipPath>
</defs>
</svg>
