<svg width="138" height="138" viewBox="0 0 138 138" fill="none" xmlns="http://www.w3.org/2000/svg">
<g clip-path="url(#clip0_87_380)">
<rect width="138" height="138" rx="69" fill="black"/>
<path d="M49.2137 59.2033C49.2842 59.2032 49.3547 59.2031 49.4273 59.203C49.6224 59.2027 49.8174 59.2028 50.0125 59.203C50.2249 59.203 50.4374 59.2028 50.6498 59.2026C51.022 59.2023 51.3941 59.2023 51.7663 59.2023C52.3197 59.2024 52.8732 59.2022 53.4266 59.2019C54.4725 59.2014 55.5185 59.2012 56.5644 59.2012C57.3722 59.2012 58.1799 59.201 58.9876 59.2009C59.2201 59.2008 59.4526 59.2008 59.6851 59.2007C59.7718 59.2007 59.7718 59.2007 59.8603 59.2007C61.4861 59.2003 63.1119 59.2001 64.7377 59.2002C64.799 59.2002 64.8603 59.2002 64.9234 59.2002C65.2341 59.2002 65.5447 59.2002 65.8554 59.2002C65.948 59.2002 65.948 59.2002 66.0424 59.2002C66.1671 59.2002 66.2919 59.2002 66.4167 59.2002C68.3581 59.2002 70.2994 59.1998 72.2408 59.1991C74.422 59.1982 76.6031 59.1977 78.7842 59.1978C79.0168 59.1978 79.2494 59.1978 79.482 59.1978C79.5679 59.1978 79.5679 59.1978 79.6555 59.1978C80.577 59.1978 81.4985 59.1974 82.42 59.197C83.3462 59.1965 84.2723 59.1965 85.1984 59.1968C85.7485 59.197 86.2986 59.1969 86.8488 59.1964C87.2164 59.1961 87.5841 59.1961 87.9517 59.1965C88.1611 59.1967 88.3704 59.1968 88.5798 59.1963C88.8057 59.1959 89.0316 59.1962 89.2576 59.1967C89.322 59.1964 89.3864 59.1961 89.4527 59.1959C90.3459 59.1997 91.2573 59.3074 91.9204 59.9688C92.2825 60.3958 92.3448 60.8007 92.3164 61.3461C92.2637 61.9809 91.9043 62.3414 91.4745 62.7746C91.4004 62.8504 91.3263 62.9262 91.2523 63.002C91.1161 63.1414 90.9792 63.2801 90.8423 63.4189C90.8151 63.4466 90.7878 63.4743 90.7597 63.5029C90.6816 63.5823 90.603 63.6612 90.5243 63.7402C90.4783 63.7865 90.4323 63.8329 90.385 63.8806C90.2717 63.9809 89.7689 64.508 90.1623 63.9809C90.1482 64.0137 90.134 64.0465 90.1194 64.0803C90.0475 64.2102 89.9802 64.2725 89.865 64.3648C89.5798 64.6068 89.3353 64.8829 89.0868 65.1616C89.0215 65.234 88.9546 65.3049 88.8875 65.3755C87.774 66.5603 87.2562 67.9031 87.2565 69.5262C87.2564 69.611 87.2562 69.6958 87.2559 69.7806C87.2554 70.013 87.2552 70.2454 87.255 70.4778C87.2548 70.7287 87.2543 70.9796 87.2538 71.2305C87.2527 71.836 87.2522 72.4416 87.2517 73.0471C87.2515 73.3326 87.2512 73.618 87.2509 73.9035C87.25 74.853 87.2492 75.8024 87.2488 76.7519C87.2487 76.998 87.2486 77.2442 87.2484 77.4904C87.2484 77.5516 87.2484 77.6127 87.2484 77.6758C87.2479 78.6666 87.2465 79.6574 87.2448 80.6482C87.2429 81.6664 87.242 82.6846 87.2418 83.7028C87.2417 84.2741 87.2412 84.8454 87.2398 85.4167C87.2386 85.9032 87.2382 86.3898 87.2387 86.8764C87.2389 87.1244 87.2388 87.3723 87.2378 87.6203C87.2368 87.8479 87.2369 88.0755 87.2377 88.3031C87.2379 88.3849 87.2376 88.4666 87.237 88.5484C87.2316 89.2704 87.3375 89.9959 87.6815 90.6406C87.6999 90.6763 87.7183 90.712 87.7373 90.7488C88.0986 91.4234 88.5992 92.0118 89.2329 92.4399C89.0474 92.6384 88.8418 92.7962 88.6246 92.9574C88.5863 92.986 88.548 93.0146 88.5085 93.0441C88.1858 93.2845 87.8602 93.5207 87.5339 93.756C87.2329 93.9732 86.934 94.1929 86.6358 94.4139C86.3001 94.6627 85.9631 94.9096 85.6244 95.1542C84.91 95.6705 84.2015 96.1938 83.5023 96.7306C83.1609 96.9927 82.8179 97.251 82.4668 97.4997C81.837 97.9459 81.2183 98.4078 80.6093 98.882C80.474 98.987 80.3373 99.0899 80.2001 99.1922C80.1606 99.2217 80.1211 99.2511 80.0804 99.2815C80.0036 99.3387 79.9266 99.3958 79.8496 99.4527C79.6989 99.5649 79.5603 99.6732 79.4276 99.8069C79.3368 99.8973 79.3368 99.8973 79.2275 99.8973C79.2275 89.0582 79.2275 78.2192 79.2275 67.0516C77.1887 67.0516 75.1499 67.0516 73.0493 67.0516C73.0498 67.6991 73.0498 67.6991 73.0504 68.3597C73.0527 71.2107 73.0549 74.0618 73.0562 76.9129C73.0562 76.9615 73.0563 77.0102 73.0563 77.0603C73.0568 78.118 73.0572 79.1756 73.0576 80.2333C73.0579 80.752 73.0581 81.2706 73.0583 81.7893C73.0583 81.8409 73.0583 81.8926 73.0583 81.9457C73.059 83.6182 73.0603 85.2906 73.0618 86.963C73.0633 88.6819 73.0643 90.4008 73.0647 92.1197C73.0647 92.3626 73.0648 92.6055 73.0648 92.8484C73.0648 92.8962 73.0649 92.944 73.0649 92.9932C73.0651 93.7622 73.0658 94.5311 73.0668 95.3C73.0678 96.0734 73.0681 96.8467 73.0679 97.6201C73.0678 98.0793 73.0681 98.5386 73.0691 98.9978C73.0698 99.3412 73.0696 99.6845 73.0691 100.028C73.069 100.166 73.0692 100.305 73.0698 100.444C73.0748 101.879 72.9046 103.075 71.884 104.161C71.1316 104.886 70.1432 105.25 69.1068 105.235C68.0602 105.197 67.1427 104.698 66.4268 103.948C65.4295 102.772 65.3696 101.321 65.3751 99.8505C65.3751 99.7085 65.3749 99.5665 65.3747 99.4245C65.3744 99.1173 65.3746 98.8102 65.3753 98.503C65.3763 98.0462 65.3764 97.5895 65.3762 97.1328C65.376 96.3642 65.3765 95.5956 65.3775 94.8271C65.3785 94.0666 65.3791 93.3062 65.3793 92.5457C65.3793 92.4984 65.3793 92.451 65.3793 92.4022C65.3794 92.1616 65.3794 91.921 65.3795 91.6805C65.3798 89.9786 65.3809 88.2767 65.3825 86.5748C65.384 84.922 65.3852 83.2691 65.3859 81.6163C65.3859 81.5398 65.3859 81.5398 65.3859 81.4618C65.3861 80.9497 65.3864 80.4376 65.3866 79.9255C65.387 78.8824 65.3874 77.8392 65.3879 76.7961C65.3879 76.7482 65.388 76.7002 65.388 76.6508C65.3895 73.4511 65.3921 70.2514 65.3949 67.0516C63.3922 67.0516 61.3894 67.0516 59.326 67.0516C59.326 77.9631 59.326 88.8745 59.326 100.117C59.1817 100.008 59.0373 99.8995 58.8886 99.7877C58.7272 99.6673 58.5653 99.5475 58.4034 99.4278C58.3583 99.3944 58.3132 99.3611 58.2667 99.3267C58.007 99.1349 57.7462 98.9448 57.4841 98.7563C57.0329 98.4319 56.5898 98.0983 56.1491 97.7598C55.5449 97.2963 54.9325 96.8443 54.3145 96.3996C53.8561 96.0697 53.4061 95.7304 52.9584 95.3862C52.6681 95.1634 52.3749 94.9465 52.0758 94.7358C51.7253 94.4871 51.386 94.2235 51.0452 93.9617C50.8016 93.7747 50.5575 93.5891 50.3082 93.4097C49.9517 93.1531 49.5168 92.785 49.1733 92.5114C49.3099 92.3912 49.437 92.3258 49.6043 92.2068C49.8568 92.0159 50.0546 91.8111 50.2501 91.5625C50.3042 91.4938 50.3042 91.4938 50.3594 91.4237C50.9276 90.6727 51.2947 89.7998 51.2962 88.8465C51.2966 88.7392 51.2966 88.7392 51.297 88.6298C51.297 88.5508 51.297 88.4718 51.297 88.3928C51.2971 88.3086 51.2973 88.2244 51.2976 88.1402C51.2981 87.9089 51.2983 87.6776 51.2985 87.4463C51.2987 87.1968 51.2992 86.9473 51.2997 86.6978C51.3007 86.0952 51.3013 85.4926 51.3018 84.89C51.302 84.606 51.3023 84.322 51.3026 84.038C51.3035 83.0934 51.3043 82.1488 51.3047 81.2042C51.3048 80.9592 51.3049 80.7141 51.305 80.4691C51.3051 80.3777 51.3051 80.3777 51.3051 80.2845C51.3056 79.2987 51.307 78.3129 51.3087 77.3271C51.3105 76.3142 51.3115 75.3012 51.3117 74.2883C51.3118 73.7199 51.3123 73.1515 51.3137 72.5832C51.3149 72.0989 51.3153 71.6147 51.3148 71.1305C51.3145 70.8837 51.3146 70.6369 51.3157 70.3902C51.3167 70.1636 51.3166 69.9371 51.3158 69.7105C51.3156 69.6292 51.3159 69.5479 51.3165 69.4665C51.3287 67.8548 50.6239 66.5519 49.5596 65.3856C49.4882 65.3065 49.4171 65.2271 49.3478 65.1462C49.0884 64.8437 48.8131 64.5604 48.5313 64.2791C48.4871 64.2346 48.443 64.1901 48.3975 64.1442C48.1633 63.9098 47.9249 63.6847 47.6742 63.4683C47.0086 62.8841 46.2635 62.1944 46.1931 61.2557C46.1844 60.6987 46.2774 60.3057 46.6377 59.8724C47.313 59.1939 48.3207 59.2017 49.2137 59.2033Z" fill="url(#paint0_linear_87_380)"/>
<path d="M45.3526 44.0142C45.4228 44.0141 45.493 44.0139 45.5653 44.0137C45.6429 44.0138 45.7205 44.0139 45.7981 44.014C45.8811 44.014 45.9641 44.0138 46.0471 44.0137C46.276 44.0134 46.5048 44.0134 46.7337 44.0135C46.9824 44.0136 47.2311 44.0133 47.4798 44.0131C47.9734 44.0126 48.4671 44.0125 48.9607 44.0125C49.5518 44.0124 50.1429 44.0121 50.734 44.0117C52.1628 44.0108 53.5915 44.0105 55.0203 44.0102C55.696 44.0101 56.3717 44.0099 57.0474 44.0097C59.3599 44.009 61.6725 44.0084 63.985 44.0082C64.1302 44.0082 64.2754 44.0082 64.4206 44.0082C64.5661 44.0082 64.7117 44.0082 64.8572 44.0081C65.1126 44.0081 65.3681 44.0081 65.6235 44.0081C65.6966 44.0081 65.7698 44.0081 65.8429 44.0081C68.1909 44.0079 70.539 44.007 72.8871 44.0058C75.4054 44.0044 77.9237 44.0036 80.442 44.0035C80.7143 44.0035 80.9867 44.0035 81.259 44.0035C81.3261 44.0035 81.3931 44.0035 81.4622 44.0035C82.5422 44.0034 83.6221 44.0028 84.7021 44.002C85.7872 44.0012 86.8724 44.0011 87.9575 44.0015C88.6024 44.0018 89.2473 44.0015 89.8922 44.0007C90.3229 44.0001 90.7536 44.0002 91.1843 44.0008C91.4297 44.001 91.6752 44.0011 91.9206 44.0004C92.1441 43.9998 92.3676 43.9999 92.5911 44.0006C92.6712 44.0008 92.7514 44.0006 92.8315 44.0002C94.2269 43.9928 95.5119 44.593 96.5107 45.5564C96.7702 45.8188 96.9735 46.1167 97.1606 46.434C97.1804 46.4674 97.2001 46.5008 97.2204 46.5353C97.8423 47.6167 98.0216 48.9288 97.7097 50.1447C97.4611 50.9402 97.1558 51.658 96.6139 52.3012C96.578 52.3452 96.5421 52.3891 96.5052 52.4344C96.1809 52.8162 95.8168 53.1094 95.411 53.3979C95.3465 53.4444 95.3465 53.4444 95.2806 53.4919C94.9874 53.6854 94.6719 53.8096 94.3449 53.9325C94.3021 53.9487 94.2592 53.9648 94.2151 53.9814C93.6308 54.1921 93.0851 54.2365 92.4662 54.2345C92.3842 54.2347 92.3022 54.2349 92.2202 54.2351C91.995 54.2356 91.7698 54.2355 91.5446 54.2352C91.2995 54.235 91.0545 54.2355 90.8094 54.2358C90.3799 54.2364 89.9504 54.2365 89.521 54.2364C88.8823 54.2363 88.2436 54.2367 87.6049 54.2373C86.3979 54.2384 85.1908 54.2387 83.9837 54.2387C83.0515 54.2388 82.1192 54.239 81.187 54.2394C80.9187 54.2395 80.6504 54.2396 80.3821 54.2396C80.282 54.2397 80.282 54.2397 80.18 54.2397C78.3036 54.2404 76.4272 54.2408 74.5508 54.2408C74.48 54.2408 74.4093 54.2408 74.3364 54.2408C73.9778 54.2408 73.6192 54.2408 73.2605 54.2407C73.1893 54.2407 73.1181 54.2407 73.0447 54.2407C72.9007 54.2407 72.7567 54.2407 72.6127 54.2407C70.3721 54.2407 68.1316 54.2415 65.8911 54.243C63.374 54.2447 60.8568 54.2456 58.3397 54.2455C58.0712 54.2455 57.8028 54.2455 57.5343 54.2455C57.4682 54.2455 57.4021 54.2455 57.334 54.2455C56.2706 54.2455 55.2072 54.2462 54.1438 54.2471C53.0749 54.2481 52.0059 54.2482 50.937 54.2474C50.3021 54.247 49.6672 54.2472 49.0324 54.2483C48.6079 54.249 48.1835 54.2488 47.7591 54.248C47.5175 54.2476 47.2759 54.2475 47.0343 54.2484C45.1279 54.255 43.5626 53.9641 42.1553 52.5741C41.2147 51.5438 40.681 50.2118 40.7291 48.814C40.7662 48.1771 40.8416 47.5069 41.1195 46.9275C41.1345 46.8957 41.1495 46.8639 41.165 46.8312C41.3869 46.3684 41.6273 45.9755 41.9943 45.6114C42.0394 45.5639 42.0845 45.5164 42.131 45.4675C42.1761 45.4245 42.2212 45.3815 42.2676 45.3373C42.2989 45.3075 42.3301 45.2778 42.3622 45.2471C43.146 44.527 44.2834 44.0147 45.3526 44.0142Z" fill="url(#paint1_linear_87_380)"/>
<g filter="url(#filter0_f_87_380)">
<circle cx="120.714" cy="177.847" r="59.4777" fill="#009E69"/>
</g>
<g filter="url(#filter1_f_87_380)">
<circle cx="-3.47771" cy="7.52229" r="40.5223" fill="#009E69"/>
</g>
</g>
<rect x="1.5" y="1.5" width="135" height="135" rx="67.5" stroke="white" stroke-opacity="0.05" stroke-width="3"/>
<rect x="1.5" y="1.5" width="135" height="135" rx="67.5" stroke="url(#paint2_radial_87_380)" stroke-opacity="0.4" stroke-width="3"/>
<defs>
<filter id="filter0_f_87_380" x="-30.5591" y="26.5745" width="302.545" height="302.545" filterUnits="userSpaceOnUse" color-interpolation-filters="sRGB">
<feFlood flood-opacity="0" result="BackgroundImageFix"/>
<feBlend mode="normal" in="SourceGraphic" in2="BackgroundImageFix" result="shape"/>
<feGaussianBlur stdDeviation="45.8974" result="effect1_foregroundBlur_87_380"/>
</filter>
<filter id="filter1_f_87_380" x="-106.54" y="-95.5401" width="206.125" height="206.125" filterUnits="userSpaceOnUse" color-interpolation-filters="sRGB">
<feFlood flood-opacity="0" result="BackgroundImageFix"/>
<feBlend mode="normal" in="SourceGraphic" in2="BackgroundImageFix" result="shape"/>
<feGaussianBlur stdDeviation="31.27" result="effect1_foregroundBlur_87_380"/>
</filter>
<linearGradient id="paint0_linear_87_380" x1="69.293" y1="44" x2="69.293" y2="105.236" gradientUnits="userSpaceOnUse">
<stop stop-color="#00E49F"/>
<stop offset="1" stop-color="#006941"/>
</linearGradient>
<linearGradient id="paint1_linear_87_380" x1="69.293" y1="44" x2="69.293" y2="105.236" gradientUnits="userSpaceOnUse">
<stop stop-color="#00E49F"/>
<stop offset="1" stop-color="#006941"/>
</linearGradient>
<radialGradient id="paint2_radial_87_380" cx="0" cy="0" r="1" gradientUnits="userSpaceOnUse" gradientTransform="translate(69) rotate(90) scale(75.8708 60.888)">
<stop stop-color="white"/>
<stop offset="1" stop-color="white" stop-opacity="0"/>
</radialGradient>
<clipPath id="clip0_87_380">
<rect width="138" height="138" rx="69" fill="white"/>
</clipPath>
</defs>
</svg>
