<svg width="1053" height="194" viewBox="0 0 1053 194" fill="none" xmlns="http://www.w3.org/2000/svg">
<path d="M219.557 137V53.1882H273.676V64.8021H233.925V88.8681H270.084V100.243H233.925V125.386H273.676V137H219.557ZM288.301 137V77.0147H300.992L302.07 85.2762C303.986 82.243 306.54 79.8883 309.733 78.212C312.926 76.456 316.557 75.5779 320.628 75.5779C323.661 75.5779 326.375 75.9771 328.77 76.7753C331.244 77.5735 333.439 78.7708 335.355 80.3672C337.271 81.9636 338.827 83.9591 340.025 86.3537C342.26 83.0013 345.173 80.3672 348.765 78.4515C352.357 76.5358 356.268 75.5779 360.499 75.5779C365.607 75.5779 369.918 76.6156 373.43 78.691C376.942 80.6865 379.616 83.6798 381.452 87.6708C383.288 91.6618 384.205 96.5708 384.205 102.398V137H369.957V103.834C369.957 98.6461 368.92 94.695 366.844 91.9811C364.769 89.1874 361.696 87.7905 357.625 87.7905C354.831 87.7905 352.357 88.5089 350.202 89.9457C348.047 91.3026 346.37 93.2981 345.173 95.9322C343.976 98.5663 343.377 101.759 343.377 105.511V137H329.129V103.834C329.129 98.6461 328.092 94.695 326.016 91.9811C323.941 89.1874 320.788 87.7905 316.557 87.7905C313.923 87.7905 311.529 88.5089 309.374 89.9457C307.298 91.3026 305.662 93.2981 304.465 95.9322C303.267 98.5663 302.669 101.759 302.669 105.511V137H288.301ZM399.263 163.341V77.0147H412.074L413.63 85.7551C414.907 83.999 416.424 82.3627 418.18 80.8461C420.016 79.2497 422.211 77.9726 424.765 77.0147C427.32 76.0569 430.313 75.5779 433.745 75.5779C439.412 75.5779 444.401 76.9748 448.712 79.7685C453.102 82.4824 456.534 86.234 459.008 91.0233C461.563 95.7327 462.84 101.121 462.84 107.187C462.84 113.174 461.563 118.522 459.008 123.231C456.454 127.94 452.982 131.652 448.592 134.366C444.281 137.08 439.333 138.437 433.745 138.437C429.195 138.437 425.204 137.599 421.772 135.922C418.34 134.166 415.626 131.692 413.63 128.499V163.341H399.263ZM430.752 125.985C434.104 125.985 437.098 125.187 439.732 123.59C442.366 121.994 444.441 119.799 445.958 117.005C447.474 114.131 448.233 110.819 448.233 107.067C448.233 103.316 447.474 100.043 445.958 97.2493C444.441 94.3757 442.366 92.1407 439.732 90.5443C437.098 88.9479 434.104 88.1497 430.752 88.1497C427.32 88.1497 424.286 88.9479 421.652 90.5443C419.018 92.1407 416.983 94.3757 415.546 97.2493C414.109 100.043 413.391 103.316 413.391 107.067C413.391 110.739 414.109 114.012 415.546 116.885C416.983 119.759 419.018 121.994 421.652 123.59C424.286 125.187 427.32 125.985 430.752 125.985ZM477.382 137V77.0147H491.75V137H477.382ZM484.566 67.3165C481.932 67.3165 479.737 66.5183 477.981 64.9219C476.305 63.2456 475.467 61.2102 475.467 58.8156C475.467 56.3411 476.305 54.3456 477.981 52.829C479.737 51.2326 481.932 50.4344 484.566 50.4344C487.2 50.4344 489.356 51.2326 491.032 52.829C492.788 54.3456 493.666 56.3411 493.666 58.8156C493.666 61.2102 492.788 63.2456 491.032 64.9219C489.356 66.5183 487.2 67.3165 484.566 67.3165ZM508.237 137V77.0147H521.048L522.365 88.2694C523.802 85.6354 525.558 83.4004 527.633 81.5645C529.788 79.6488 532.263 78.1721 535.056 77.1345C537.93 76.0968 541.123 75.5779 544.635 75.5779V90.7838H540.085C537.611 90.7838 535.296 91.1031 533.141 91.7416C530.985 92.3004 529.11 93.2582 527.513 94.6152C525.917 95.8923 524.68 97.6883 523.802 100.003C523.003 102.318 522.604 105.191 522.604 108.624V137H508.237ZM582.328 138.437C576.421 138.437 571.153 137.16 566.523 134.605C561.973 131.971 558.381 128.339 555.747 123.71C553.193 119 551.916 113.573 551.916 107.426C551.916 101.121 553.193 95.613 555.747 90.9035C558.302 86.1143 561.854 82.3627 566.403 79.6488C571.033 76.9349 576.381 75.5779 582.447 75.5779C588.354 75.5779 593.503 76.895 597.893 79.5291C602.283 82.1632 605.675 85.6753 608.07 90.0654C610.544 94.4555 611.782 99.3645 611.782 104.792C611.782 105.591 611.742 106.469 611.662 107.426C611.662 108.384 611.622 109.422 611.542 110.539H562.333V101.2H597.294C597.055 96.9699 595.538 93.6174 592.744 91.143C590.03 88.5887 586.598 87.3116 582.447 87.3116C579.494 87.3116 576.74 87.9901 574.186 89.347C571.712 90.704 569.716 92.6995 568.199 95.3336C566.763 97.9677 566.044 101.28 566.044 105.271V108.743C566.044 112.495 566.763 115.728 568.199 118.442C569.636 121.076 571.552 123.111 573.947 124.548C576.421 125.905 579.175 126.583 582.208 126.583C585.56 126.583 588.314 125.865 590.469 124.428C592.704 122.991 594.381 121.076 595.498 118.681H609.986C608.948 122.353 607.112 125.705 604.478 128.739C601.924 131.692 598.771 134.047 595.019 135.803C591.347 137.559 587.117 138.437 582.328 138.437ZM625.766 137V53.1882H676.771V61.4497H635.823V90.9035H670.665V99.0452H635.823V137H625.766ZM711.153 138.437C706.523 138.437 702.452 137.519 698.94 135.683C695.508 133.767 692.834 130.894 690.918 127.062C689.082 123.231 688.164 118.402 688.164 112.575V77.0147H698.222V111.497C698.222 117.643 699.499 122.233 702.053 125.266C704.687 128.3 708.439 129.816 713.308 129.816C716.74 129.816 719.773 129.018 722.407 127.422C725.121 125.745 727.237 123.351 728.753 120.238C730.35 117.045 731.148 113.213 731.148 108.743V77.0147H741.205V137H732.106L731.507 126.464C729.671 130.215 726.957 133.169 723.365 135.324C719.773 137.399 715.703 138.437 711.153 138.437ZM757.877 137V77.0147H766.976L767.575 87.6708C769.491 83.9192 772.245 80.9658 775.837 78.8107C779.428 76.6555 783.499 75.5779 788.049 75.5779C792.679 75.5779 796.71 76.5358 800.142 78.4515C803.574 80.2874 806.248 83.121 808.164 86.9524C810.08 90.7838 811.037 95.613 811.037 101.44V137H800.98V102.517C800.98 96.4511 799.663 91.9013 797.029 88.8681C794.395 85.7551 790.643 84.1986 785.774 84.1986C782.342 84.1986 779.269 85.0367 776.555 86.7129C773.921 88.3892 771.806 90.7838 770.209 93.8968C768.693 97.0098 767.934 100.841 767.934 105.391V137H757.877ZM853.332 138.437C847.505 138.437 842.356 137.08 837.886 134.366C833.496 131.572 830.064 127.821 827.589 123.111C825.195 118.322 823.997 112.934 823.997 106.947C823.997 100.881 825.195 95.4932 827.589 90.7838C830.064 86.0744 833.536 82.3627 838.006 79.6488C842.476 76.9349 847.624 75.5779 853.451 75.5779C858.32 75.5779 862.631 76.5757 866.382 78.5712C870.134 80.5667 873.007 83.3605 875.003 86.9524V50.7936H885.06V137H875.961L875.123 127.182C873.846 129.098 872.209 130.934 870.214 132.69C868.218 134.366 865.824 135.763 863.03 136.88C860.236 137.918 857.003 138.437 853.332 138.437ZM854.409 129.696C858.4 129.696 861.912 128.778 864.945 126.943C868.059 125.027 870.453 122.393 872.129 119.04C873.806 115.608 874.644 111.617 874.644 107.067C874.644 102.517 873.806 98.5663 872.129 95.2138C870.453 91.7816 868.059 89.1076 864.945 87.1919C861.912 85.2762 858.4 84.3183 854.409 84.3183C850.578 84.3183 847.106 85.2762 843.993 87.1919C840.959 89.1076 838.565 91.7816 836.809 95.2138C835.132 98.5663 834.294 102.517 834.294 107.067C834.294 111.617 835.132 115.608 836.809 119.04C838.565 122.393 840.959 125.027 843.993 126.943C847.106 128.778 850.578 129.696 854.409 129.696ZM928.395 138.437C922.727 138.437 917.699 137.16 913.308 134.605C908.918 131.971 905.446 128.3 902.892 123.59C900.417 118.801 899.18 113.293 899.18 107.067C899.18 100.682 900.417 95.1739 902.892 90.5443C905.366 85.8349 908.799 82.1632 913.189 79.5291C917.659 76.895 922.807 75.5779 928.634 75.5779C934.461 75.5779 939.45 76.895 943.6 79.5291C947.751 82.1632 950.904 85.5954 953.059 89.8259C955.294 94.0564 956.412 98.686 956.412 103.715C956.412 104.513 956.412 105.391 956.412 106.349C956.412 107.227 956.372 108.225 956.292 109.342H906.723V101.56H946.474C946.234 96.052 944.399 91.7816 940.966 88.7484C937.614 85.6354 933.423 84.0789 928.395 84.0789C924.962 84.0789 921.769 84.8771 918.816 86.4735C915.863 87.9901 913.468 90.225 911.632 93.1784C909.876 96.1318 908.998 99.8434 908.998 104.313V107.666C908.998 112.535 909.916 116.646 911.752 119.998C913.588 123.351 915.982 125.865 918.936 127.541C921.889 129.138 925.042 129.936 928.395 129.936C932.545 129.936 935.977 129.018 938.691 127.182C941.485 125.266 943.521 122.672 944.798 119.4H954.735C953.698 123.071 951.982 126.344 949.587 129.217C947.192 132.011 944.199 134.246 940.607 135.922C937.095 137.599 933.024 138.437 928.395 138.437ZM996.681 138.437C990.855 138.437 985.706 137.08 981.236 134.366C976.846 131.572 973.414 127.821 970.939 123.111C968.545 118.322 967.347 112.934 967.347 106.947C967.347 100.881 968.545 95.4932 970.939 90.7838C973.414 86.0744 976.886 82.3627 981.356 79.6488C985.826 76.9349 990.974 75.5779 996.801 75.5779C1001.67 75.5779 1005.98 76.5757 1009.73 78.5712C1013.48 80.5667 1016.36 83.3605 1018.35 86.9524V50.7936H1028.41V137H1019.31L1018.47 127.182C1017.2 129.098 1015.56 130.934 1013.56 132.69C1011.57 134.366 1009.17 135.763 1006.38 136.88C1003.59 137.918 1000.35 138.437 996.681 138.437ZM997.759 129.696C1001.75 129.696 1005.26 128.778 1008.3 126.943C1011.41 125.027 1013.8 122.393 1015.48 119.04C1017.16 115.608 1017.99 111.617 1017.99 107.067C1017.99 102.517 1017.16 98.5663 1015.48 95.2138C1013.8 91.7816 1011.41 89.1076 1008.3 87.1919C1005.26 85.2762 1001.75 84.3183 997.759 84.3183C993.928 84.3183 990.455 85.2762 987.342 87.1919C984.309 89.1076 981.915 91.7816 980.159 95.2138C978.482 98.5663 977.644 102.517 977.644 107.067C977.644 111.617 978.482 115.608 980.159 119.04C981.915 122.393 984.309 125.027 987.342 126.943C990.455 128.778 993.928 129.696 997.759 129.696Z" fill="white"/>
<path d="M26.9626 48.0953C27.1865 48.095 27.4103 48.0947 27.641 48.0944C28.2607 48.0936 28.8804 48.0938 29.5001 48.0942C30.1749 48.0945 30.8498 48.0938 31.5246 48.0932C32.7068 48.0923 33.8891 48.0921 35.0713 48.0923C36.8294 48.0925 38.5874 48.0918 40.3455 48.0909C43.6681 48.0892 46.9908 48.0887 50.3135 48.0886C52.8793 48.0886 55.4452 48.0882 58.011 48.0876C58.7496 48.0875 59.4882 48.0873 60.2268 48.0872C60.5023 48.0871 60.5023 48.0871 60.7832 48.0871C65.9479 48.086 71.1126 48.0853 76.2773 48.0854C76.472 48.0854 76.6667 48.0854 76.8673 48.0854C77.8542 48.0854 78.8411 48.0854 79.828 48.0854C80.122 48.0854 80.122 48.0854 80.4219 48.0855C80.8182 48.0855 81.2146 48.0855 81.611 48.0855C87.7781 48.0856 93.9453 48.0843 100.112 48.0819C107.041 48.0792 113.97 48.0777 120.899 48.0779C121.638 48.0779 122.376 48.0779 123.115 48.0779C123.388 48.0779 123.388 48.0779 123.667 48.0779C126.594 48.0779 129.521 48.0768 132.449 48.0753C135.391 48.0739 138.333 48.0737 141.274 48.0748C143.022 48.0755 144.77 48.0752 146.517 48.0735C147.685 48.0724 148.853 48.0727 150.021 48.0739C150.686 48.0746 151.351 48.0747 152.016 48.0733C152.734 48.0718 153.451 48.073 154.169 48.0744C154.374 48.0736 154.578 48.0727 154.789 48.0718C157.626 48.0839 160.522 48.4247 162.628 50.517C163.779 51.8678 163.976 53.1488 163.886 54.874C163.719 56.8824 162.577 58.0226 161.212 59.393C160.976 59.6328 160.741 59.8726 160.506 60.1125C160.073 60.5533 159.638 60.9923 159.204 61.4312C159.117 61.5189 159.03 61.6067 158.941 61.6971C158.693 61.9482 158.443 62.1979 158.193 62.4476C158.047 62.5942 157.901 62.7409 157.751 62.8919C157.391 63.2092 155.794 64.8766 157.043 63.2092C156.998 63.313 156.953 63.4167 156.907 63.5236C156.678 63.9347 156.465 64.1318 156.099 64.4235C155.193 65.1892 154.416 66.0627 153.627 66.9443C153.419 67.1732 153.207 67.3975 152.994 67.6211C149.456 71.369 147.812 75.6171 147.813 80.7517C147.812 81.02 147.811 81.2882 147.811 81.5565C147.809 82.2917 147.808 83.0268 147.808 83.762C147.807 84.5557 147.805 85.3494 147.804 86.1431C147.801 88.0587 147.799 89.9743 147.797 91.89C147.796 92.793 147.796 93.6961 147.795 94.5992C147.792 97.6028 147.789 100.606 147.788 103.61C147.788 104.389 147.787 105.167 147.787 105.946C147.787 106.14 147.787 106.333 147.787 106.533C147.785 109.667 147.781 112.801 147.775 115.936C147.769 119.157 147.766 122.378 147.766 125.599C147.765 127.406 147.764 129.214 147.759 131.021C147.756 132.56 147.754 134.099 147.756 135.639C147.757 136.423 147.756 137.208 147.753 137.992C147.75 138.712 147.75 139.432 147.753 140.152C147.753 140.411 147.752 140.669 147.75 140.928C147.733 143.212 148.07 145.507 149.162 147.547C149.221 147.66 149.28 147.773 149.34 147.889C150.488 150.023 152.078 151.885 154.091 153.239C153.502 153.867 152.848 154.366 152.159 154.876C152.037 154.966 151.915 155.057 151.79 155.15C150.765 155.911 149.73 156.658 148.694 157.402C147.738 158.089 146.788 158.784 145.841 159.483C144.774 160.271 143.704 161.051 142.628 161.825C140.358 163.459 138.108 165.114 135.887 166.812C134.802 167.641 133.713 168.458 132.597 169.245C130.597 170.657 128.631 172.118 126.696 173.618C126.267 173.95 125.832 174.276 125.396 174.599C125.271 174.693 125.146 174.786 125.016 174.882C124.772 175.063 124.528 175.243 124.283 175.423C123.804 175.779 123.364 176.121 122.942 176.544C122.654 176.83 122.654 176.83 122.307 176.83C122.307 142.541 122.307 108.252 122.307 72.9234C115.83 72.9234 109.353 72.9234 102.681 72.9234C102.682 74.9717 102.682 74.9717 102.684 77.0613C102.692 86.0806 102.698 95.1 102.703 104.119C102.703 104.273 102.703 104.427 102.703 104.586C102.704 107.932 102.706 111.277 102.707 114.623C102.708 116.264 102.709 117.905 102.709 119.546C102.709 119.709 102.709 119.872 102.709 120.041C102.712 125.331 102.716 130.622 102.72 135.913C102.725 141.35 102.728 146.788 102.73 152.226C102.73 152.994 102.73 153.763 102.73 154.531C102.73 154.682 102.73 154.833 102.73 154.989C102.731 157.422 102.733 159.854 102.736 162.287C102.739 164.733 102.74 167.18 102.74 169.626C102.739 171.079 102.74 172.532 102.744 173.985C102.746 175.071 102.745 176.157 102.744 177.243C102.743 177.681 102.744 178.12 102.746 178.558C102.762 183.099 102.221 186.882 98.979 190.317C96.5886 192.61 93.449 193.762 90.1566 193.717C86.832 193.596 83.9172 192.017 81.6432 189.645C78.4751 185.923 78.2847 181.334 78.3023 176.682C78.3021 176.233 78.3016 175.784 78.301 175.334C78.2999 174.363 78.3007 173.391 78.3029 172.419C78.306 170.974 78.3062 169.529 78.3057 168.084C78.305 165.653 78.3067 163.222 78.3099 160.79C78.313 158.385 78.315 155.979 78.3155 153.573C78.3156 153.424 78.3156 153.274 78.3156 153.119C78.3158 152.358 78.316 151.597 78.3161 150.836C78.3172 145.452 78.3207 140.068 78.3257 134.685C78.3305 129.456 78.3341 124.227 78.3363 118.998C78.3365 118.756 78.3364 118.756 78.3366 118.51C78.3372 116.89 78.3379 115.27 78.3386 113.65C78.3399 110.35 78.3413 107.05 78.3429 103.75C78.343 103.598 78.343 103.447 78.3431 103.29C78.3479 93.1679 78.3563 83.0457 78.365 72.9234C72.003 72.9234 65.641 72.9234 59.0862 72.9234C59.0862 107.442 59.0862 141.96 59.0862 177.524C58.6276 177.181 58.1691 176.837 57.6967 176.483C57.1839 176.102 56.6697 175.723 56.1553 175.345C56.0119 175.239 55.8686 175.134 55.721 175.025C54.8959 174.418 54.0675 173.817 53.2348 173.221C51.8018 172.194 50.3941 171.139 48.9941 170.068C47.0749 168.602 45.1293 167.172 43.166 165.765C41.7101 164.722 40.2803 163.648 38.8583 162.559C37.936 161.854 37.0047 161.168 36.0545 160.502C34.9409 159.715 33.8632 158.881 32.7806 158.053C32.0067 157.461 31.2313 156.874 30.4393 156.307C29.3069 155.495 27.9254 154.331 26.834 153.465C27.2682 153.085 27.6717 152.878 28.2032 152.501C29.0054 151.897 29.6338 151.249 30.2548 150.463C30.4267 150.246 30.4267 150.246 30.6022 150.024C32.4069 147.648 33.5733 144.887 33.5781 141.871C33.5792 141.532 33.5792 141.532 33.5804 141.185C33.5804 140.936 33.5804 140.686 33.5803 140.436C33.5809 140.169 33.5816 139.903 33.5823 139.637C33.584 138.905 33.5847 138.173 33.5851 137.442C33.5858 136.652 33.5875 135.863 33.589 135.074C33.5924 133.167 33.5942 131.261 33.5957 129.355C33.5965 128.456 33.5974 127.558 33.5983 126.659C33.6013 123.671 33.6038 120.683 33.605 117.695C33.6054 116.92 33.6057 116.144 33.606 115.369C33.6062 115.08 33.6062 115.08 33.6063 114.785C33.6077 111.667 33.6121 108.548 33.6178 105.43C33.6235 102.225 33.6266 99.0209 33.6272 95.8165C33.6276 94.0184 33.6291 92.2203 33.6335 90.4223C33.6373 88.8904 33.6387 87.3586 33.637 85.8267C33.6362 85.0461 33.6365 84.2654 33.6399 83.4848C33.643 82.7681 33.6428 82.0515 33.6401 81.3348C33.6397 81.0775 33.6404 80.8202 33.6425 80.5629C33.6811 75.4643 31.4422 71.3424 28.0614 67.653C27.8345 67.4028 27.6087 67.1516 27.3884 66.8956C26.5646 65.9388 25.69 65.0424 24.7946 64.1525C24.6544 64.0117 24.5141 63.8709 24.3696 63.7259C23.6258 62.9843 22.8684 62.2723 22.0721 61.5875C19.9575 59.7395 17.5907 57.5576 17.367 54.5881C17.3393 52.826 17.6348 51.5826 18.7795 50.2121C20.9245 48.0657 24.1258 48.0904 26.9626 48.0953Z" fill="url(#paint0_linear_497_10)"/>
<path d="M14.6972 0.045075C14.92 0.0445518 15.1429 0.0440286 15.3726 0.0434896C15.6191 0.0437843 15.8657 0.0440949 16.1123 0.0444197C16.3759 0.0441335 16.6395 0.0437716 16.9031 0.0433408C17.6302 0.0423746 18.3573 0.0424919 19.0844 0.0427818C19.8744 0.0429085 20.6644 0.0420375 21.4544 0.0412943C23.0225 0.0399786 24.5906 0.039599 26.1588 0.0395026C28.0365 0.0393442 29.9143 0.0381878 31.7921 0.0370139C36.3308 0.0342268 40.8694 0.0332038 45.4081 0.0323738C47.5546 0.0319688 49.7012 0.0313438 51.8478 0.030692C59.1939 0.0284654 66.5401 0.0266059 73.8863 0.0260079C74.3475 0.0259695 74.8087 0.025931 75.2699 0.0258925C75.7323 0.0258543 76.1946 0.025816 76.657 0.0257778C77.4684 0.0257106 78.2799 0.0256431 79.0914 0.0255746C79.3236 0.0255551 79.5559 0.0255358 79.7881 0.0255167C87.2472 0.0249009 94.7063 0.0222853 102.165 0.0182419C110.165 0.0139071 118.165 0.0114099 126.165 0.0111994C127.03 0.0111697 127.895 0.0111323 128.76 0.0110894C128.973 0.0110797 129.186 0.01107 129.406 0.0110601C132.837 0.0108603 136.267 0.00894704 139.698 0.00642536C143.145 0.00393535 146.592 0.00337096 150.039 0.00476701C152.088 0.00554088 154.137 0.00486695 156.185 0.00212363C157.553 0.000434812 158.922 0.00063438 160.29 0.00237277C161.069 0.00330987 161.849 0.00342563 162.629 0.00124372C163.339 -0.000726341 164.049 -0.000281881 164.759 0.00205331C165.013 0.00247431 165.268 0.00203158 165.523 0.000596795C169.955 -0.0227278 174.037 1.87583 177.21 4.92362C178.034 5.75387 178.68 6.6962 179.275 7.69976C179.337 7.80553 179.4 7.9113 179.465 8.02027C181.44 11.4412 182.01 15.5922 181.019 19.4386C180.229 21.9552 179.259 24.226 177.538 26.2607C177.424 26.3998 177.31 26.5389 177.193 26.6822C176.162 27.8899 175.006 28.8174 173.717 29.7301C173.512 29.8773 173.512 29.8773 173.302 30.0275C172.371 30.6394 171.369 31.0324 170.33 31.4214C170.194 31.4724 170.058 31.5234 169.918 31.576C168.062 32.2424 166.328 32.3828 164.362 32.3767C164.102 32.3772 163.841 32.3778 163.58 32.3785C162.865 32.3802 162.15 32.3797 161.434 32.3788C160.656 32.3782 159.877 32.3797 159.099 32.3808C157.735 32.3826 156.37 32.3831 155.006 32.3828C152.977 32.3822 150.948 32.3837 148.919 32.3855C145.085 32.3889 141.25 32.3898 137.416 32.39C134.454 32.3902 131.493 32.3909 128.532 32.392C127.679 32.3923 126.827 32.3926 125.975 32.3929C125.657 32.3931 125.657 32.393 125.333 32.3932C119.372 32.3953 113.411 32.3967 107.45 32.3965C107.226 32.3965 107.001 32.3965 106.769 32.3965C105.63 32.3965 104.491 32.3964 103.352 32.3964C103.125 32.3964 102.899 32.3964 102.666 32.3964C102.209 32.3964 101.751 32.3964 101.294 32.3963C94.1762 32.3961 87.0587 32.3987 79.9413 32.4035C71.9452 32.4088 63.949 32.4118 55.9529 32.4115C55.1001 32.4114 54.2473 32.4114 53.3945 32.4114C53.1845 32.4114 52.9746 32.4114 52.7582 32.4114C49.3801 32.4114 46.002 32.4136 42.6239 32.4166C39.2282 32.4195 35.8325 32.4199 32.4368 32.4176C30.42 32.4163 28.4032 32.417 26.3865 32.4204C25.0382 32.4224 23.69 32.422 22.3417 32.4195C21.5743 32.4181 20.8068 32.4179 20.0394 32.4207C13.9831 32.4415 9.0108 31.5211 4.54019 27.124C1.55212 23.8646 -0.143263 19.651 0.00951114 15.2289C0.127522 13.2141 0.366922 11.094 1.24972 9.26097C1.29743 9.16045 1.34515 9.05994 1.39431 8.95638C2.09915 7.49249 2.86292 6.24941 4.02864 5.09776C4.17193 4.94749 4.31522 4.79723 4.46285 4.64241C4.60614 4.50645 4.74943 4.3705 4.89706 4.23043C4.99624 4.13629 5.09542 4.04215 5.19761 3.94515C7.68718 1.66713 11.3006 0.0466575 14.6972 0.045075Z" fill="url(#paint1_linear_497_10)"/>
<defs>
<linearGradient id="paint0_linear_497_10" x1="90.7479" y1="0" x2="90.7479" y2="193.718" gradientUnits="userSpaceOnUse">
<stop stop-color="#00E49F"/>
<stop offset="1" stop-color="#006941"/>
</linearGradient>
<linearGradient id="paint1_linear_497_10" x1="90.7479" y1="0" x2="90.7479" y2="193.718" gradientUnits="userSpaceOnUse">
<stop stop-color="#00E49F"/>
<stop offset="1" stop-color="#006941"/>
</linearGradient>
</defs>
</svg>
