<svg width="341" height="59" viewBox="0 0 341 59" fill="none" xmlns="http://www.w3.org/2000/svg">
<path d="M8.31924 14.6482C8.3883 14.6481 8.45737 14.648 8.52853 14.6479C8.71974 14.6477 8.91095 14.6478 9.10216 14.6479C9.31038 14.648 9.5186 14.6478 9.72682 14.6476C10.0916 14.6473 10.4564 14.6472 10.8211 14.6473C11.3636 14.6474 11.906 14.6472 12.4485 14.6469C13.4737 14.6464 14.4989 14.6462 15.5241 14.6462C16.3158 14.6462 17.1074 14.6461 17.8991 14.6459C18.127 14.6458 18.3549 14.6458 18.5828 14.6457C18.6678 14.6457 18.6678 14.6457 18.7545 14.6457C20.348 14.6454 21.9416 14.6452 23.5351 14.6452C23.5952 14.6452 23.6553 14.6452 23.7172 14.6452C24.0217 14.6452 24.3262 14.6452 24.6307 14.6452C24.7214 14.6452 24.7214 14.6452 24.8139 14.6452C24.9362 14.6452 25.0585 14.6452 25.1808 14.6452C27.0837 14.6453 28.9865 14.6449 30.8894 14.6441C33.0272 14.6433 35.1651 14.6429 37.303 14.6429C37.5309 14.6429 37.7589 14.6429 37.9868 14.6429C38.071 14.6429 38.071 14.6429 38.1569 14.6429C39.0601 14.6429 39.9634 14.6426 40.8666 14.6421C41.7743 14.6417 42.6821 14.6416 43.5898 14.642C44.129 14.6422 44.6682 14.6421 45.2074 14.6416C45.5678 14.6413 45.9281 14.6413 46.2885 14.6417C46.4937 14.6419 46.6989 14.642 46.9041 14.6415C47.1255 14.6411 47.347 14.6414 47.5684 14.6419C47.6316 14.6416 47.6947 14.6413 47.7597 14.6411C48.6352 14.6447 49.5284 14.7485 50.1785 15.3858C50.5334 15.7972 50.5944 16.1873 50.5666 16.7128C50.5149 17.3245 50.1626 17.6718 49.7414 18.0891C49.6688 18.1621 49.5962 18.2352 49.5236 18.3083C49.39 18.4425 49.2559 18.5762 49.1218 18.7099C49.095 18.7366 49.0683 18.7633 49.0408 18.7909C48.9642 18.8674 48.8871 18.9434 48.8101 19.0195C48.765 19.0641 48.7199 19.1088 48.6735 19.1548C48.5624 19.2514 48.0696 19.7593 48.4552 19.2514C48.4414 19.283 48.4275 19.3146 48.4132 19.3472C48.3426 19.4724 48.2767 19.5324 48.1638 19.6213C47.8842 19.8545 47.6446 20.1205 47.4011 20.389C47.3371 20.4587 47.2715 20.527 47.2057 20.5951C46.1143 21.7366 45.6068 23.0304 45.6071 24.5943C45.6069 24.676 45.6067 24.7577 45.6065 24.8394C45.606 25.0633 45.6058 25.2872 45.6056 25.5111C45.6054 25.7528 45.6049 25.9946 45.6045 26.2363C45.6034 26.8197 45.6029 27.4032 45.6024 27.9866C45.6021 28.2617 45.6019 28.5367 45.6016 28.8118C45.6007 29.7265 45.5999 30.6413 45.5995 31.5561C45.5994 31.7933 45.5993 32.0305 45.5992 32.2677C45.5992 32.3266 45.5991 32.3856 45.5991 32.4463C45.5987 33.4009 45.5973 34.3556 45.5956 35.3102C45.5938 36.2912 45.5928 37.2722 45.5927 38.2533C45.5925 38.8037 45.5921 39.3541 45.5907 39.9046C45.5895 40.3734 45.5891 40.8422 45.5896 41.311C45.5899 41.5499 45.5898 41.7889 45.5887 42.0278C45.5878 42.2471 45.5878 42.4663 45.5887 42.6856C45.5888 42.7644 45.5886 42.8432 45.5879 42.922C45.5826 43.6176 45.6865 44.3166 46.0236 44.9378C46.0417 44.9722 46.0597 45.0066 46.0784 45.042C46.4325 45.692 46.9231 46.259 47.5442 46.6714C47.3625 46.8627 47.1609 47.0146 46.948 47.17C46.9105 47.1976 46.8729 47.2252 46.8342 47.2536C46.518 47.4852 46.1988 47.7127 45.8789 47.9394C45.584 48.1487 45.291 48.3604 44.9987 48.5733C44.6697 48.8131 44.3394 49.0509 44.0073 49.2866C43.3071 49.784 42.6127 50.2883 41.9274 50.8055C41.5928 51.058 41.2566 51.3068 40.9124 51.5464C40.2952 51.9764 39.6887 52.4215 39.0918 52.8783C38.9592 52.9794 38.8252 53.0786 38.6907 53.1772C38.652 53.2056 38.6133 53.2339 38.5734 53.2632C38.4981 53.3183 38.4227 53.3733 38.3471 53.4281C38.1995 53.5363 38.0636 53.6406 37.9335 53.7695C37.8446 53.8566 37.8446 53.8566 37.7374 53.8566C37.7374 43.4132 37.7374 32.9698 37.7374 22.21C35.739 22.21 33.7407 22.21 31.6818 22.21C31.6823 22.8339 31.6823 22.8339 31.6829 23.4703C31.6852 26.2173 31.6873 28.9643 31.6886 31.7113C31.6886 31.7581 31.6886 31.805 31.6887 31.8533C31.6891 32.8724 31.6896 33.8914 31.69 34.9104C31.6902 35.4102 31.6904 35.9099 31.6906 36.4097C31.6906 36.4594 31.6906 36.5091 31.6907 36.5604C31.6914 38.1717 31.6926 39.7831 31.694 41.3945C31.6956 43.0506 31.6966 44.7068 31.6969 46.3629C31.6969 46.5969 31.697 46.8309 31.697 47.065C31.697 47.111 31.6971 47.1571 31.6971 47.2045C31.6973 47.9454 31.698 48.6862 31.699 49.4271C31.6999 50.1722 31.7003 50.9173 31.7 51.6625C31.6999 52.1049 31.7002 52.5474 31.7012 52.9899C31.7019 53.3207 31.7017 53.6515 31.7012 53.9823C31.7011 54.1158 31.7013 54.2494 31.7019 54.3829C31.7068 55.7659 31.54 56.9182 30.5397 57.9643C29.8021 58.6627 28.8334 59.0134 27.8175 58.9996C26.7917 58.9628 25.8924 58.482 25.1908 57.7595C24.2132 56.6261 24.1545 55.2282 24.1599 53.8114C24.1599 53.6746 24.1597 53.5378 24.1595 53.401C24.1592 53.1051 24.1594 52.8091 24.1601 52.5131C24.1611 52.0731 24.1611 51.633 24.161 51.1929C24.1608 50.4524 24.1613 49.7119 24.1623 48.9714C24.1632 48.2387 24.1638 47.506 24.164 46.7734C24.164 46.7277 24.164 46.6821 24.1641 46.6351C24.1641 46.4033 24.1642 46.1715 24.1642 45.9397C24.1645 44.2999 24.1656 42.6602 24.1671 41.0205C24.1686 39.428 24.1698 37.8355 24.1704 36.243C24.1705 36.1693 24.1705 36.1693 24.1705 36.0941C24.1707 35.6007 24.1709 35.1073 24.1711 34.6139C24.1715 33.6088 24.172 32.6038 24.1725 31.5988C24.1725 31.5526 24.1725 31.5064 24.1725 31.4588C24.174 28.3758 24.1766 25.2929 24.1793 22.21C22.2163 22.21 20.2533 22.21 18.2309 22.21C18.2309 32.7231 18.2309 43.2362 18.2309 54.0679C18.0894 53.9633 17.9479 53.8587 17.8021 53.7509C17.6439 53.6349 17.4853 53.5195 17.3265 53.4042C17.2823 53.372 17.2381 53.3399 17.1925 53.3067C16.938 53.122 16.6824 52.9388 16.4254 52.7572C15.9833 52.4447 15.5489 52.1232 15.117 51.7971C14.5248 51.3505 13.9245 50.915 13.3187 50.4865C12.8695 50.1687 12.4284 49.8418 11.9896 49.5101C11.705 49.2954 11.4177 49.0865 11.1245 48.8835C10.7809 48.6439 10.4484 48.3899 10.1144 48.1376C9.87556 47.9574 9.63631 47.7787 9.39196 47.6058C9.04255 47.3586 8.61628 47.0039 8.27955 46.7403C8.41353 46.6245 8.53803 46.5615 8.702 46.4468C8.94953 46.2628 9.14343 46.0655 9.33502 45.826C9.38808 45.7599 9.38808 45.7599 9.4422 45.6923C9.99905 44.9687 10.3589 44.1277 10.3604 43.2092C10.3608 43.1058 10.3608 43.1058 10.3611 43.0004C10.3611 42.9243 10.3611 42.8482 10.3611 42.772C10.3613 42.6909 10.3615 42.6098 10.3617 42.5286C10.3622 42.3058 10.3624 42.083 10.3626 41.8601C10.3628 41.6197 10.3633 41.3793 10.3638 41.1389C10.3648 40.5583 10.3654 39.9777 10.3658 39.3972C10.3661 39.1235 10.3664 38.8499 10.3667 38.5762C10.3676 37.6661 10.3683 36.756 10.3687 35.8459C10.3688 35.6098 10.3689 35.3737 10.369 35.1376C10.3691 35.0496 10.3691 35.0496 10.3691 34.9598C10.3696 34.01 10.3709 33.0602 10.3727 32.1104C10.3744 31.1344 10.3754 30.1585 10.3756 29.1825C10.3757 28.6349 10.3762 28.0872 10.3775 27.5396C10.3787 27.0731 10.3791 26.6065 10.3786 26.14C10.3784 25.9022 10.3785 25.6644 10.3795 25.4267C10.3804 25.2084 10.3804 24.9901 10.3796 24.7719C10.3794 24.6935 10.3797 24.6151 10.3803 24.5368C10.3922 22.9839 9.70141 21.7285 8.65825 20.6048C8.58824 20.5287 8.51859 20.4521 8.4506 20.3742C8.19642 20.0827 7.92657 19.8098 7.65031 19.5387C7.60703 19.4958 7.56375 19.453 7.51916 19.4088C7.28968 19.1829 7.05597 18.9661 6.81027 18.7575C6.15782 18.1947 5.42756 17.5301 5.35853 16.6257C5.34999 16.089 5.44115 15.7104 5.79436 15.2929C6.4562 14.6392 7.44393 14.6467 8.31924 14.6482Z" fill="url(#paint0_linear_3_4961)"/>
<path d="M4.53476 0.0137283C4.60353 0.013569 4.67231 0.0134097 4.74316 0.0132455C4.81924 0.0133352 4.89532 0.0134298 4.9714 0.0135288C5.05273 0.0134416 5.13407 0.0133314 5.21541 0.0132002C5.43975 0.0129059 5.66409 0.0129416 5.88843 0.0130299C6.13218 0.0130685 6.37594 0.0128032 6.6197 0.0125769C7.10353 0.0121761 7.58737 0.0120605 8.0712 0.0120312C8.65059 0.0119829 9.22997 0.0116307 9.80935 0.0112732C11.2097 0.0104243 12.6101 0.0101128 14.0105 0.00985999C14.6728 0.00973662 15.3352 0.00954629 15.9975 0.00934776C18.2641 0.00866962 20.5307 0.00810328 22.7974 0.00792115C22.9397 0.00790944 23.082 0.00789773 23.2243 0.007886C23.367 0.00787434 23.5096 0.00786269 23.6523 0.00785105C23.9026 0.0078306 24.153 0.00781003 24.4034 0.00778918C24.4751 0.00778324 24.5467 0.00777736 24.6184 0.00777152C26.9199 0.007584 29.2213 0.00678735 31.5228 0.00555586C33.9911 0.00423563 36.4595 0.00347507 38.9278 0.00341097C39.1947 0.00340191 39.4617 0.00339053 39.7286 0.00337745C39.7943 0.00337451 39.8601 0.00337156 39.9278 0.00336853C40.9863 0.00330769 42.0448 0.00272497 43.1034 0.00195695C44.167 0.00119858 45.2306 0.00102668 46.2942 0.00145187C46.9263 0.00168757 47.5584 0.00148231 48.1905 0.000646788C48.6126 0.000132429 49.0348 0.000193211 49.4569 0.000722667C49.6975 0.00100808 49.9381 0.00104333 50.1786 0.000378797C50.3977 -0.000221219 50.6167 -8.58517e-05 50.8358 0.000625369C50.9143 0.000753593 50.9929 0.000618752 51.0715 0.000181764C52.4392 -0.00692214 53.6987 0.571315 54.6777 1.49957C54.932 1.75244 55.1313 2.03944 55.3147 2.34509C55.334 2.3773 55.3534 2.40952 55.3733 2.44271C55.9828 3.48462 56.1585 4.74885 55.8529 5.92035C55.6092 6.68681 55.3099 7.37842 54.7788 7.99814C54.7436 8.0405 54.7085 8.08286 54.6722 8.12651C54.3543 8.49432 53.9975 8.77682 53.5998 9.05479C53.5365 9.09963 53.5365 9.09963 53.4719 9.14539C53.1846 9.33175 52.8754 9.45142 52.5548 9.5699C52.5128 9.58544 52.4709 9.60098 52.4276 9.61699C51.8549 9.81995 51.32 9.86273 50.7134 9.86086C50.633 9.86101 50.5526 9.86119 50.4723 9.86142C50.2515 9.86192 50.0308 9.86177 49.8101 9.8615C49.5699 9.86133 49.3297 9.86177 49.0895 9.86213C48.6685 9.86267 48.2475 9.86282 47.8266 9.86271C47.2006 9.86255 46.5746 9.86299 45.9486 9.86354C44.7655 9.86456 43.5824 9.86486 42.3992 9.86492C41.4855 9.86497 40.5718 9.86519 39.658 9.86553C39.3951 9.86562 39.1321 9.86571 38.8691 9.86581C38.771 9.86584 38.771 9.86584 38.671 9.86588C36.8318 9.86653 34.9926 9.86695 33.1535 9.8669C33.0841 9.8669 33.0148 9.8669 32.9433 9.86689C32.5918 9.86689 32.2403 9.86687 31.8889 9.86686C31.8191 9.86686 31.7492 9.86686 31.6773 9.86686C31.5362 9.86685 31.395 9.86685 31.2538 9.86684C29.0578 9.86678 26.8617 9.86757 24.6656 9.86902C22.1985 9.87064 19.7313 9.87155 17.2641 9.87145C17.001 9.87144 16.7378 9.87144 16.4747 9.87144C16.4099 9.87144 16.3451 9.87143 16.2784 9.87143C15.2361 9.87143 14.1938 9.8721 13.1515 9.87301C12.1037 9.87391 11.056 9.87401 10.0083 9.87332C9.386 9.87293 8.76373 9.87312 8.14147 9.87416C7.72547 9.87479 7.30947 9.87465 6.89347 9.8739C6.65667 9.87349 6.41988 9.8734 6.18308 9.87426C4.31444 9.8806 2.78025 9.60029 1.40086 8.26107C0.478901 7.26836 -0.0442032 5.98503 0.00293463 4.63821C0.0393466 4.02459 0.113213 3.37887 0.385596 2.82058C0.400319 2.78997 0.415041 2.75936 0.43021 2.72782C0.647687 2.28196 0.883345 1.90336 1.24303 1.55261C1.28724 1.50684 1.33145 1.46108 1.377 1.41392C1.42121 1.37252 1.46542 1.33111 1.51097 1.28845C1.54157 1.25977 1.57218 1.2311 1.60371 1.20156C2.37186 0.507751 3.48675 0.0142103 4.53476 0.0137283Z" fill="url(#paint1_linear_3_4961)"/>
<path d="M69.6332 42V14.8932H87.485V19.1141H74.861V26.2006H86.3233V30.2666H74.861V37.7791H87.485V42H69.6332ZM92.0943 42V22.5993H96.6638L97.0897 25.1938C97.7093 24.2644 98.5225 23.5287 99.5293 22.9865C100.562 22.4186 101.75 22.1346 103.092 22.1346C104.073 22.1346 104.951 22.2637 105.725 22.5218C106.525 22.78 107.223 23.1543 107.816 23.6448C108.41 24.1353 108.913 24.7549 109.327 25.5036C110.049 24.4709 110.992 23.6577 112.153 23.064C113.315 22.4444 114.593 22.1346 115.987 22.1346C117.665 22.1346 119.072 22.4831 120.208 23.1802C121.37 23.8514 122.247 24.8453 122.841 26.1619C123.435 27.4527 123.732 29.0404 123.732 30.9249V42H118.543V31.4284C118.543 29.8536 118.233 28.6531 117.613 27.827C116.994 26.9751 116.052 26.5491 114.787 26.5491C113.935 26.5491 113.186 26.7686 112.541 27.2074C111.895 27.6205 111.392 28.2143 111.03 28.9887C110.695 29.7632 110.527 30.7055 110.527 31.8156V42H105.299V31.4284C105.299 29.8536 104.989 28.6531 104.37 27.827C103.75 26.9751 102.782 26.5491 101.466 26.5491C100.665 26.5491 99.9424 26.7686 99.297 27.2074C98.6774 27.6205 98.1869 28.2143 97.8255 28.9887C97.4899 29.7632 97.3221 30.7055 97.3221 31.8156V42H92.0943ZM128.587 50.5193V22.5993H133.234L133.776 25.31C134.189 24.742 134.68 24.2257 135.248 23.761C135.816 23.2705 136.5 22.8833 137.3 22.5993C138.1 22.2895 139.03 22.1346 140.088 22.1346C141.921 22.1346 143.535 22.5864 144.929 23.4899C146.323 24.3677 147.42 25.581 148.22 27.13C149.046 28.6531 149.459 30.3957 149.459 32.3577C149.459 34.2939 149.046 36.0236 148.22 37.5467C147.394 39.0699 146.284 40.2703 144.89 41.1481C143.496 42.0258 141.895 42.4647 140.088 42.4647C138.668 42.4647 137.429 42.2065 136.371 41.6902C135.312 41.1481 134.46 40.4123 133.815 39.4829V50.5193H128.587ZM138.888 37.8953C139.92 37.8953 140.824 37.6629 141.598 37.1982C142.399 36.7335 143.018 36.0881 143.457 35.262C143.922 34.4101 144.154 33.4291 144.154 32.319C144.154 31.2347 143.922 30.2666 143.457 29.4147C143.018 28.5628 142.399 27.9045 141.598 27.4398C140.824 26.9493 139.92 26.704 138.888 26.704C137.881 26.704 136.977 26.9493 136.177 27.4398C135.377 27.9045 134.757 28.5628 134.318 29.4147C133.879 30.2408 133.66 31.2089 133.66 32.319C133.66 33.4033 133.879 34.3714 134.318 35.2233C134.757 36.0752 135.377 36.7335 136.177 37.1982C136.977 37.6629 137.881 37.8953 138.888 37.8953ZM154.078 42V22.5993H159.306V42H154.078ZM156.711 19.8886C155.756 19.8886 154.982 19.6175 154.388 19.0754C153.794 18.5075 153.497 17.7975 153.497 16.9456C153.497 16.0937 153.794 15.3966 154.388 14.8545C154.982 14.2865 155.756 14.0026 156.711 14.0026C157.667 14.0026 158.441 14.2865 159.035 14.8545C159.654 15.3966 159.964 16.0937 159.964 16.9456C159.964 17.7975 159.654 18.5075 159.035 19.0754C158.441 19.6175 157.667 19.8886 156.711 19.8886ZM164.551 42V22.5993H169.197L169.662 26.2006C170.153 25.3745 170.733 24.6646 171.405 24.0708C172.102 23.4512 172.902 22.9736 173.806 22.638C174.735 22.3024 175.742 22.1346 176.826 22.1346V27.6721H175.2C174.399 27.6721 173.664 27.7625 172.992 27.9432C172.347 28.1239 171.779 28.4208 171.288 28.8339C170.798 29.2469 170.424 29.8019 170.165 30.499C169.907 31.196 169.778 32.0738 169.778 33.1322V42H164.551ZM189.351 42.4647C187.389 42.4647 185.646 42.0516 184.123 41.2255C182.626 40.3736 181.451 39.199 180.599 37.7016C179.773 36.2043 179.36 34.4617 179.36 32.4739C179.36 30.4603 179.773 28.679 180.599 27.13C181.425 25.581 182.587 24.3677 184.084 23.4899C185.607 22.5864 187.363 22.1346 189.351 22.1346C191.287 22.1346 192.978 22.5606 194.424 23.4125C195.869 24.2386 196.992 25.3745 197.793 26.8202C198.619 28.2659 199.032 29.9052 199.032 31.7381C199.032 31.9963 199.032 32.2803 199.032 32.5901C199.032 32.8999 199.006 33.2355 198.954 33.5969H183.078V30.3828H193.727C193.675 29.1695 193.236 28.2014 192.41 27.4785C191.61 26.7557 190.603 26.3942 189.39 26.3942C188.486 26.3942 187.66 26.6008 186.911 27.0138C186.163 27.4011 185.569 28.0077 185.13 28.8339C184.717 29.6341 184.51 30.6539 184.51 31.893V33.016C184.51 34.0745 184.704 34.991 185.091 35.7654C185.504 36.5399 186.072 37.1466 186.795 37.5855C187.544 37.9985 188.383 38.2051 189.312 38.2051C190.267 38.2051 191.055 37.9985 191.674 37.5855C192.32 37.1724 192.81 36.6303 193.146 35.9591H198.49C198.128 37.1724 197.509 38.2696 196.631 39.2506C195.779 40.2316 194.733 41.019 193.494 41.6128C192.281 42.1807 190.9 42.4647 189.351 42.4647ZM209.858 42V18.0686H201.803V14.8932H221.746V18.0686H213.73V42H209.858ZM223.432 42V22.5993H226.918L227.266 26.2781C227.705 25.4261 228.26 24.6904 228.931 24.0708C229.628 23.4512 230.441 22.9736 231.371 22.638C232.3 22.3024 233.359 22.1346 234.546 22.1346V26.2393H233.307C232.481 26.2393 231.694 26.3426 230.945 26.5491C230.222 26.7557 229.59 27.0913 229.047 27.556C228.505 27.9948 228.079 28.6144 227.77 29.4147C227.46 30.215 227.305 31.2218 227.305 32.4352V42H223.432ZM244.572 42.4647C242.971 42.4647 241.642 42.1936 240.584 41.6515C239.525 41.1093 238.738 40.3865 238.221 39.4829C237.705 38.5794 237.447 37.5984 237.447 36.5399C237.447 35.2491 237.77 34.1519 238.415 33.2484C239.086 32.3448 240.041 31.6478 241.281 31.1573C242.546 30.6668 244.043 30.4215 245.773 30.4215H250.845C250.845 29.2856 250.678 28.3563 250.342 27.6334C250.006 26.8847 249.503 26.3297 248.832 25.9683C248.161 25.581 247.334 25.3874 246.353 25.3874C245.192 25.3874 244.185 25.6714 243.333 26.2393C242.481 26.7815 241.965 27.6076 241.784 28.7177H237.912C238.066 27.3236 238.531 26.149 239.306 25.1938C240.106 24.2128 241.126 23.4641 242.365 22.9478C243.604 22.4057 244.934 22.1346 246.353 22.1346C248.161 22.1346 249.684 22.4573 250.923 23.1027C252.162 23.7481 253.104 24.6646 253.75 25.8521C254.395 27.0138 254.718 28.4079 254.718 30.0343V42H251.349L251.039 38.7085C250.781 39.2248 250.445 39.7153 250.032 40.18C249.645 40.6447 249.18 41.0448 248.638 41.3804C248.122 41.716 247.515 41.9742 246.818 42.1549C246.147 42.3614 245.398 42.4647 244.572 42.4647ZM245.308 39.328C246.134 39.328 246.883 39.1602 247.554 38.8246C248.225 38.489 248.793 38.0372 249.258 37.4693C249.748 36.8755 250.11 36.2172 250.342 35.4944C250.6 34.7715 250.742 34.01 250.768 33.2097V33.1322H246.16C245.05 33.1322 244.146 33.2742 243.449 33.5582C242.752 33.8163 242.249 34.1907 241.939 34.6812C241.655 35.1459 241.513 35.6751 241.513 36.2689C241.513 36.8884 241.655 37.4306 241.939 37.8953C242.249 38.3599 242.688 38.7214 243.255 38.9795C243.823 39.2119 244.508 39.328 245.308 39.328ZM268.297 42.4647C266.438 42.4647 264.799 42.0258 263.379 41.1481C261.959 40.2703 260.849 39.057 260.049 37.508C259.274 35.9591 258.887 34.2165 258.887 32.2803C258.887 30.3183 259.274 28.5757 260.049 27.0525C260.849 25.5294 261.972 24.329 263.418 23.4512C264.863 22.5735 266.516 22.1346 268.374 22.1346C269.897 22.1346 271.24 22.4444 272.402 23.064C273.563 23.6577 274.467 24.5097 275.112 25.6198V14.1187H278.985V42H275.5L275.112 38.9795C274.725 39.5733 274.222 40.1412 273.602 40.6834C272.982 41.1997 272.234 41.6257 271.356 41.9613C270.478 42.2969 269.459 42.4647 268.297 42.4647ZM268.955 39.0957C270.169 39.0957 271.227 38.8117 272.131 38.2438C273.06 37.6758 273.783 36.8884 274.299 35.8816C274.815 34.849 275.074 33.6614 275.074 32.319C275.074 30.9508 274.815 29.7632 274.299 28.7564C273.783 27.7238 273.06 26.9235 272.131 26.3555C271.227 25.7876 270.169 25.5036 268.955 25.5036C267.768 25.5036 266.709 25.7876 265.78 26.3555C264.85 26.9235 264.128 27.7238 263.611 28.7564C263.095 29.7632 262.837 30.9508 262.837 32.319C262.837 33.6614 263.095 34.849 263.611 35.8816C264.128 36.8884 264.85 37.6758 265.78 38.2438C266.709 38.8117 267.768 39.0957 268.955 39.0957ZM284.512 42V22.5993H288.385V42H284.512ZM286.448 18.8818C285.726 18.8818 285.119 18.6494 284.628 18.1848C284.164 17.7201 283.931 17.1263 283.931 16.4035C283.931 15.7064 284.164 15.1385 284.628 14.6996C285.119 14.2349 285.726 14.0026 286.448 14.0026C287.171 14.0026 287.778 14.2349 288.268 14.6996C288.785 15.1385 289.043 15.7064 289.043 16.4035C289.043 17.1263 288.785 17.7201 288.268 18.1848C287.778 18.6494 287.171 18.8818 286.448 18.8818ZM293.922 42V22.5993H297.407L297.64 25.9683C298.259 24.7807 299.137 23.8514 300.273 23.1802C301.409 22.4831 302.725 22.1346 304.223 22.1346C305.772 22.1346 307.101 22.4573 308.211 23.1027C309.321 23.7223 310.173 24.6646 310.767 25.9296C311.387 27.1687 311.696 28.7435 311.696 30.6539V42H307.824V31.0411C307.824 29.2082 307.424 27.827 306.624 26.8977C305.849 25.9425 304.7 25.4649 303.177 25.4649C302.145 25.4649 301.215 25.7101 300.389 26.2006C299.589 26.6911 298.956 27.4011 298.492 28.3304C298.027 29.2598 297.795 30.4086 297.795 31.7769V42H293.922ZM324.512 50.984C322.73 50.984 321.156 50.7516 319.787 50.2869C318.445 49.8481 317.399 49.1639 316.651 48.2346C315.902 47.3052 315.528 46.1693 315.528 44.8268C315.528 44.1298 315.683 43.4328 315.992 42.7358C316.302 42.0387 316.806 41.3675 317.503 40.7221C318.2 40.0509 319.129 39.47 320.291 38.9795L322.459 40.6834C321.168 41.1997 320.291 41.7935 319.826 42.4647C319.387 43.1617 319.168 43.82 319.168 44.4396C319.168 45.2141 319.4 45.8595 319.865 46.3758C320.329 46.8921 320.962 47.2794 321.762 47.5375C322.588 47.7957 323.505 47.9248 324.512 47.9248C325.518 47.9248 326.383 47.7828 327.106 47.4988C327.855 47.2148 328.436 46.8147 328.849 46.2984C329.262 45.782 329.468 45.1754 329.468 44.4783C329.468 43.6522 329.159 42.9681 328.539 42.426C327.945 41.8838 326.783 41.5611 325.054 41.4579C323.582 41.3546 322.33 41.2126 321.298 41.0319C320.291 40.8254 319.426 40.6059 318.703 40.3736C318.006 40.1154 317.412 39.8315 316.922 39.5217C316.457 39.1861 316.057 38.8505 315.721 38.5148V37.6242L319.594 33.6743L322.692 34.7199L318.509 38.631L319.323 36.9272C319.607 37.1079 319.878 37.2886 320.136 37.4693C320.394 37.6242 320.743 37.7662 321.181 37.8953C321.62 38.0243 322.201 38.1405 322.924 38.2438C323.673 38.347 324.654 38.4374 325.867 38.5148C327.597 38.6697 329.004 38.9924 330.088 39.4829C331.172 39.9734 331.96 40.6318 332.45 41.4579C332.941 42.2582 333.186 43.2263 333.186 44.3622C333.186 45.4722 332.876 46.5307 332.256 47.5375C331.637 48.5444 330.682 49.3705 329.391 50.0159C328.126 50.6613 326.499 50.984 324.512 50.984ZM324.512 36.0365C322.885 36.0365 321.491 35.7267 320.329 35.1071C319.194 34.4875 318.316 33.6614 317.696 32.6288C317.102 31.5703 316.806 30.3957 316.806 29.1049C316.806 27.8141 317.102 26.6524 317.696 25.6198C318.316 24.5613 319.194 23.7223 320.329 23.1027C321.491 22.4573 322.885 22.1346 324.512 22.1346C326.138 22.1346 327.519 22.4573 328.655 23.1027C329.817 23.7223 330.695 24.5613 331.288 25.6198C331.908 26.6524 332.218 27.8141 332.218 29.1049C332.218 30.3957 331.908 31.5703 331.288 32.6288C330.695 33.6614 329.817 34.4875 328.655 35.1071C327.519 35.7267 326.138 36.0365 324.512 36.0365ZM324.512 32.9386C325.751 32.9386 326.745 32.6159 327.493 31.9705C328.268 31.2993 328.655 30.3441 328.655 29.1049C328.655 27.8658 328.268 26.9235 327.493 26.2781C326.745 25.6069 325.751 25.2712 324.512 25.2712C323.247 25.2712 322.227 25.6069 321.452 26.2781C320.704 26.9235 320.329 27.8658 320.329 29.1049C320.329 30.3441 320.704 31.2993 321.452 31.9705C322.227 32.6159 323.247 32.9386 324.512 32.9386ZM327.648 25.6585L326.719 22.5993H334.735V25.2712L327.648 25.6585Z" fill="white"/>
<defs>
<linearGradient id="paint0_linear_3_4961" x1="28" y1="0" x2="28" y2="59" gradientUnits="userSpaceOnUse">
<stop stop-color="#00E49F"/>
<stop offset="1" stop-color="#006941"/>
</linearGradient>
<linearGradient id="paint1_linear_3_4961" x1="28" y1="0" x2="28" y2="59" gradientUnits="userSpaceOnUse">
<stop stop-color="#00E49F"/>
<stop offset="1" stop-color="#006941"/>
</linearGradient>
</defs>
</svg>
