<svg width="1650" height="117" viewBox="0 0 1650 117" fill="none" xmlns="http://www.w3.org/2000/svg">
<g clip-path="url(#clip0_588_18)">
<rect width="1650" height="117" rx="25" fill="#001108"/>
<g filter="url(#filter0_f_588_18)">
<path d="M585.8 362.372C402.886 620.61 280.276 148.377 241.834 -120.019C84.0407 -625.244 575.88 -254.455 643.628 -491.496C711.377 -728.537 1337.14 -263.306 1370.65 -103.977C1404.17 55.3528 1242.49 261.869 1057.03 56.0055C871.581 -149.858 814.442 39.5759 585.8 362.372Z" fill="url(#paint0_linear_588_18)" fill-opacity="0.2"/>
</g>
<rect x="1585" y="-6" width="65.0514" height="65.0514" fill="url(#paint1_linear_588_18)" fill-opacity="0.1"/>
<rect width="65.0514" height="65.0514" transform="matrix(-1 0 0 1 64.0514 -6)" fill="url(#paint2_linear_588_18)" fill-opacity="0.1"/>
<rect x="1455" y="-6" width="65.0514" height="65.0514" fill="url(#paint3_linear_588_18)" fill-opacity="0.1"/>
<rect x="1325" y="-6" width="65.0514" height="65.0514" fill="url(#paint4_linear_588_18)" fill-opacity="0.1"/>
<rect width="65.0514" height="65.0514" transform="matrix(-1 0 0 1 194.051 -6)" fill="url(#paint5_linear_588_18)" fill-opacity="0.1"/>
<rect width="65.0514" height="65.0514" transform="matrix(-1 0 0 1 324.051 -6)" fill="url(#paint6_linear_588_18)" fill-opacity="0.1"/>
<rect x="1520" y="59" width="65.0514" height="65.0514" fill="url(#paint7_linear_588_18)" fill-opacity="0.1"/>
<rect width="65.0514" height="65.0514" transform="matrix(-1 0 0 1 129.051 59)" fill="url(#paint8_linear_588_18)" fill-opacity="0.1"/>
<rect x="1390" y="59" width="65.0514" height="65.0514" fill="url(#paint9_linear_588_18)" fill-opacity="0.1"/>
<rect width="65.0514" height="65.0514" transform="matrix(-1 0 0 1 259.051 59)" fill="url(#paint10_linear_588_18)" fill-opacity="0.1"/>
</g>
<rect x="0.5" y="0.5" width="1649" height="116" rx="24.5" stroke="url(#paint11_linear_588_18)"/>
<defs>
<filter id="filter0_f_588_18" x="10.7992" y="-757.532" width="1564.29" height="1394.68" filterUnits="userSpaceOnUse" color-interpolation-filters="sRGB">
<feFlood flood-opacity="0" result="BackgroundImageFix"/>
<feBlend mode="normal" in="SourceGraphic" in2="BackgroundImageFix" result="shape"/>
<feGaussianBlur stdDeviation="100" result="effect1_foregroundBlur_588_18"/>
</filter>
<linearGradient id="paint0_linear_588_18" x1="818.754" y1="-552.587" x2="750.481" y2="455.49" gradientUnits="userSpaceOnUse">
<stop stop-color="#00FFA6"/>
<stop offset="0.916667" stop-color="#006D47"/>
</linearGradient>
<linearGradient id="paint1_linear_588_18" x1="1659.48" y1="-6" x2="1617.53" y2="59.0514" gradientUnits="userSpaceOnUse">
<stop stop-color="white"/>
<stop offset="1" stop-color="white" stop-opacity="0"/>
</linearGradient>
<linearGradient id="paint2_linear_588_18" x1="74.4791" y1="2.28154e-06" x2="32.5257" y2="65.0514" gradientUnits="userSpaceOnUse">
<stop stop-color="white"/>
<stop offset="1" stop-color="white" stop-opacity="0"/>
</linearGradient>
<linearGradient id="paint3_linear_588_18" x1="1529.48" y1="-6" x2="1487.53" y2="59.0514" gradientUnits="userSpaceOnUse">
<stop stop-color="white"/>
<stop offset="1" stop-color="white" stop-opacity="0"/>
</linearGradient>
<linearGradient id="paint4_linear_588_18" x1="1399.48" y1="-6" x2="1357.53" y2="59.0514" gradientUnits="userSpaceOnUse">
<stop stop-color="white"/>
<stop offset="1" stop-color="white" stop-opacity="0"/>
</linearGradient>
<linearGradient id="paint5_linear_588_18" x1="74.4791" y1="2.28154e-06" x2="32.5257" y2="65.0514" gradientUnits="userSpaceOnUse">
<stop stop-color="white"/>
<stop offset="1" stop-color="white" stop-opacity="0"/>
</linearGradient>
<linearGradient id="paint6_linear_588_18" x1="74.4791" y1="2.28154e-06" x2="32.5257" y2="65.0514" gradientUnits="userSpaceOnUse">
<stop stop-color="white"/>
<stop offset="1" stop-color="white" stop-opacity="0"/>
</linearGradient>
<linearGradient id="paint7_linear_588_18" x1="1594.48" y1="59" x2="1552.53" y2="124.051" gradientUnits="userSpaceOnUse">
<stop stop-color="white"/>
<stop offset="1" stop-color="white" stop-opacity="0"/>
</linearGradient>
<linearGradient id="paint8_linear_588_18" x1="74.4791" y1="2.28154e-06" x2="32.5257" y2="65.0514" gradientUnits="userSpaceOnUse">
<stop stop-color="white"/>
<stop offset="1" stop-color="white" stop-opacity="0"/>
</linearGradient>
<linearGradient id="paint9_linear_588_18" x1="1464.48" y1="59" x2="1422.53" y2="124.051" gradientUnits="userSpaceOnUse">
<stop stop-color="white"/>
<stop offset="1" stop-color="white" stop-opacity="0"/>
</linearGradient>
<linearGradient id="paint10_linear_588_18" x1="74.4791" y1="2.28154e-06" x2="32.5257" y2="65.0514" gradientUnits="userSpaceOnUse">
<stop stop-color="white"/>
<stop offset="1" stop-color="white" stop-opacity="0"/>
</linearGradient>
<linearGradient id="paint11_linear_588_18" x1="816.235" y1="117" x2="833.765" y2="8.09891e-06" gradientUnits="userSpaceOnUse">
<stop stop-color="#30BD6F" stop-opacity="0"/>
<stop offset="1" stop-color="#30BD6F"/>
</linearGradient>
<clipPath id="clip0_588_18">
<rect width="1650" height="117" rx="25" fill="white"/>
</clipPath>
</defs>
</svg>
