<svg width="118" height="118" viewBox="0 0 118 118" fill="none" xmlns="http://www.w3.org/2000/svg">
<circle cx="59" cy="59" r="59" fill="#002512"/>
<path d="M58.5845 21C37.8598 21 21 37.8598 21 58.5845C21 79.3092 37.8598 96.169 58.5845 96.169C79.3092 96.169 96.169 79.3092 96.169 58.5845C96.169 37.8598 79.3092 21 58.5845 21ZM58.5845 89.9049C41.3144 89.9049 27.2641 75.8546 27.2641 58.5845C27.2641 41.3144 41.3144 27.2641 58.5845 27.2641C75.8546 27.2641 89.9049 41.3144 89.9049 58.5845C89.9049 75.8546 75.8546 89.9049 58.5845 89.9049ZM52.3204 52.3204C52.3204 53.5043 53.1692 54.5066 54.3374 54.7008L63.862 56.2887C68.0652 56.9871 71.1126 60.589 71.1126 64.8486C71.1126 70.029 66.8969 74.2447 61.7165 74.2447V80.5088H55.4524V74.2447C50.272 74.2447 46.0563 70.029 46.0563 64.8486H52.3204C52.3204 66.5774 53.7236 67.9806 55.4524 67.9806H61.7165C63.4454 67.9806 64.8486 66.5774 64.8486 64.8486C64.8486 63.6647 63.9998 62.6624 62.8315 62.4682L53.307 60.8803C49.1038 60.1818 46.0563 56.58 46.0563 52.3204C46.0563 47.14 50.272 42.9243 55.4524 42.9243V36.6602H61.7165V42.9243C66.8969 42.9243 71.1126 47.14 71.1126 52.3204H64.8486C64.8486 50.5946 63.4454 49.1884 61.7165 49.1884H55.4524C53.7236 49.1884 52.3204 50.5946 52.3204 52.3204Z" fill="#4BFFC6"/>
</svg>
