<svg width="118" height="118" viewBox="0 0 118 118" fill="none" xmlns="http://www.w3.org/2000/svg">
<circle cx="59" cy="59" r="59" fill="#002512"/>
<path d="M75.9167 39.6667H73.2583C72.6974 36.9392 71.2134 34.4886 69.0564 32.7277C66.8993 30.9669 64.2012 30.0035 61.4167 30L56.5833 30C53.7988 30.0035 51.1007 30.9669 48.9436 32.7277C46.7866 34.4886 45.3026 36.9392 44.7417 39.6667H42.0833C38.8798 39.6705 35.8086 40.9448 33.5434 43.21C31.2781 45.4753 30.0038 48.5465 30 51.75V75.9167C30.0038 79.1202 31.2781 82.1914 33.5434 84.4566C35.8086 86.7219 38.8798 87.9962 42.0833 88H75.9167C79.1202 87.9962 82.1914 86.7219 84.4566 84.4566C86.7219 82.1914 87.9962 79.1202 88 75.9167V51.75C87.9962 48.5465 86.7219 45.4753 84.4566 43.21C82.1914 40.9448 79.1202 39.6705 75.9167 39.6667ZM56.5833 34.8333H61.4167C62.9108 34.8395 64.3665 35.3072 65.5847 36.1724C66.8029 37.0376 67.724 38.258 68.222 39.6667H49.778C50.276 38.258 51.1971 37.0376 52.4153 36.1724C53.6335 35.3072 55.0892 34.8395 56.5833 34.8333ZM42.0833 44.5H75.9167C77.8395 44.5 79.6836 45.2638 81.0432 46.6235C82.4028 47.9831 83.1667 49.8272 83.1667 51.75V59H34.8333V51.75C34.8333 49.8272 35.5972 47.9831 36.9568 46.6235C38.3164 45.2638 40.1605 44.5 42.0833 44.5ZM75.9167 83.1667H42.0833C40.1605 83.1667 38.3164 82.4028 36.9568 81.0432C35.5972 79.6836 34.8333 77.8395 34.8333 75.9167V63.8333H56.5833V66.25C56.5833 66.8909 56.8379 67.5056 57.2912 67.9588C57.7444 68.4121 58.3591 68.6667 59 68.6667C59.6409 68.6667 60.2556 68.4121 60.7088 67.9588C61.1621 67.5056 61.4167 66.8909 61.4167 66.25V63.8333H83.1667V75.9167C83.1667 77.8395 82.4028 79.6836 81.0432 81.0432C79.6836 82.4028 77.8395 83.1667 75.9167 83.1667Z" fill="#4BFFC6"/>
</svg>
