<svg width="118" height="118" viewBox="0 0 118 118" fill="none" xmlns="http://www.w3.org/2000/svg">
<circle cx="59" cy="59" r="59" fill="#002512"/>
<path d="M41.9791 73.5835C44.0847 73.5835 45.7916 71.8766 45.7916 69.771C45.7916 67.6654 44.0847 65.9585 41.9791 65.9585C39.8735 65.9585 38.1666 67.6654 38.1666 69.771C38.1666 71.8766 39.8735 73.5835 41.9791 73.5835Z" fill="#4BFFC6"/>
<path d="M76.2917 38H40.7083C37.3391 38.004 34.109 39.3442 31.7266 41.7266C29.3442 44.109 28.004 47.3391 28 50.7083L28 71.0417C28.004 74.4109 29.3442 77.641 31.7266 80.0234C34.109 82.4058 37.3391 83.746 40.7083 83.75H76.2917C79.6609 83.746 82.891 82.4058 85.2734 80.0234C87.6558 77.641 88.996 74.4109 89 71.0417V50.7083C88.996 47.3391 87.6558 44.109 85.2734 41.7266C82.891 39.3442 79.6609 38.004 76.2917 38ZM40.7083 43.0833H76.2917C78.3139 43.0833 80.2534 43.8867 81.6834 45.3166C83.1133 46.7466 83.9167 48.6861 83.9167 50.7083H33.0833C33.0833 48.6861 33.8867 46.7466 35.3166 45.3166C36.7466 43.8867 38.6861 43.0833 40.7083 43.0833ZM76.2917 78.6667H40.7083C38.6861 78.6667 36.7466 77.8633 35.3166 76.4334C33.8867 75.0034 33.0833 73.0639 33.0833 71.0417V55.7917H83.9167V71.0417C83.9167 73.0639 83.1133 75.0034 81.6834 76.4334C80.2534 77.8633 78.3139 78.6667 76.2917 78.6667Z" fill="#4BFFC6"/>
</svg>
