<svg width="118" height="118" viewBox="0 0 118 118" fill="none" xmlns="http://www.w3.org/2000/svg">
<circle cx="59" cy="59" r="59" fill="#002512"/>
<path d="M77.7647 83.9583V90H72.8134V83.9583C72.8134 80.6257 70.0382 77.9166 66.6243 77.9166H44.3435C40.9321 77.9166 38.1544 80.6257 38.1544 83.9583V90H33.2032V83.9583C33.2032 77.9625 38.2015 73.0833 44.3435 73.0833H66.6243C72.7663 73.0833 77.7647 77.9625 77.7647 83.9583ZM57.5238 46.7294C60.6308 47.4278 63.1633 49.8808 63.8986 52.9089C64.3962 54.9558 64.1239 56.9181 63.3094 58.5832H66.5426C67.7829 58.5832 68.8672 57.6939 69.0108 56.4904C69.1791 55.0718 69.1172 53.5855 68.7855 52.0654C67.6863 47.0412 63.5099 42.9884 58.3556 41.9541C49.5993 40.1971 41.8704 46.7149 41.8704 54.9582C41.8704 58.5083 43.3038 61.737 45.6333 64.1222C45.7324 62.0729 46.4899 60.1903 47.703 58.6702C47.1385 57.5489 46.8216 56.2874 46.8216 54.9558C46.8216 49.6415 51.867 45.4558 57.5263 46.727L57.5238 46.7294ZM42.7864 41.7342C46.5716 38.2711 51.5278 36.56 56.7242 36.8742C66.4386 37.4881 74.0512 45.741 74.0512 55.6615C74.0512 59.939 70.4888 63.4166 66.1069 63.4166H60.1728C59.5712 61.4083 57.6724 59.939 55.4195 59.939C52.684 59.939 50.4683 62.1019 50.4683 64.7723C50.4683 67.4427 52.684 69.6057 55.4195 69.6057C56.7539 69.6057 57.967 69.0885 58.8557 68.2499H66.1044C73.2144 68.2499 79 62.6021 79 55.6615C79.0025 43.1987 69.3574 32.8263 57.0436 32.0505C50.4485 31.6324 44.1925 33.8195 39.4022 38.2082C34.9782 42.2562 32.3194 47.8653 32 53.7523H36.9587C37.2632 49.1533 39.3056 44.9217 42.7888 41.7342H42.7864Z" fill="#4BFFC6"/>
</svg>
