<svg width="118" height="118" viewBox="0 0 118 118" fill="none" xmlns="http://www.w3.org/2000/svg">
<circle cx="59" cy="59" r="59" fill="#002512"/>
<path d="M72.7683 52.161C72.7683 53.7336 72.1436 55.2418 71.0316 56.3538C69.9196 57.4659 68.4114 58.0906 66.8388 58.0906C65.2662 58.0906 63.758 57.4659 62.646 56.3538C61.534 55.2418 60.9093 53.7336 60.9093 52.161C60.9093 50.5884 61.534 49.0802 62.646 47.9682C63.758 46.8562 65.2662 46.2315 66.8388 46.2315C68.4114 46.2315 69.9196 46.8562 71.0316 47.9682C72.1436 49.0802 72.7683 50.5884 72.7683 52.161ZM72.754 68.4459C72.6238 72.2144 71.6829 75.9105 69.9956 79.2827C68.441 82.2227 66.1066 84.6778 63.2486 86.3785C60.3907 88.0793 57.1194 88.96 53.7939 88.9241H51.4221V75.8791C51.4115 73.6808 50.5335 71.5754 48.979 70.0209C47.4245 68.4664 45.3192 67.5884 43.1208 67.5778H30.0759V65.206C30.04 61.8804 30.9207 58.6092 32.6215 55.7512C34.3222 52.8932 36.7772 50.5588 39.7173 49.0042C43.0894 47.3169 46.7855 46.376 50.554 46.2457C54.0094 41.7826 58.4468 38.1757 63.5218 35.7052C68.5969 33.2348 74.173 31.9671 79.8173 32.0006C80.7565 31.9947 81.6876 32.1742 82.5573 32.5289C83.427 32.8836 84.2181 33.4064 84.8853 34.0674C85.5525 34.7285 86.0827 35.5147 86.4454 36.3811C86.8081 37.2474 86.9963 38.1769 86.9991 39.1161C87.0392 44.771 85.7749 50.359 83.3043 55.4458C80.8337 60.5326 77.2234 64.9812 72.754 68.4459ZM35.0187 62.8342H40.3837C42.1451 58.9112 44.2143 55.1337 46.5718 51.5373C44.9343 51.9182 43.3476 52.4914 41.8448 53.245C40.0373 54.1994 38.4785 55.5639 37.2931 57.229C36.1078 58.8942 35.3288 60.8139 35.0187 62.8342ZM67.4626 72.4282C63.8661 74.7857 60.0887 76.8548 56.1657 78.6162V83.9813C58.186 83.6711 60.1056 82.8922 61.7708 81.7068C63.436 80.5215 64.8004 78.9626 65.7549 77.1552C66.5084 75.6523 67.0816 74.0656 67.4626 72.4282ZM82.2555 39.0497C82.2382 38.4322 81.9807 37.8459 81.5377 37.4153C81.0948 36.9848 80.5014 36.744 79.8837 36.7443C67.6452 37.0929 59.3676 41.782 51.3794 52.9248C49.1502 56.1343 47.19 59.5225 45.5187 63.0548C48.1085 63.5371 50.4916 64.7923 52.3544 66.655C54.2171 68.5178 55.4723 70.9009 55.9546 73.4907C59.4869 71.8194 62.875 69.8591 66.0845 67.63C77.2178 59.6322 81.9068 51.3546 82.2555 39.0497ZM44.5961 74.4062C45.9213 75.7452 46.6647 77.553 46.6647 79.4369C46.6647 81.3208 45.9213 83.1286 44.5961 84.4675C42.4448 86.6163 36.0054 87.9422 33.3347 88.4142L30 89L30.5858 85.6652C31.0602 82.9946 32.3837 76.5551 34.5325 74.4039C35.8886 73.1104 37.6907 72.389 39.5648 72.3895C41.4388 72.3899 43.2406 73.1122 44.5961 74.4062ZM41.9349 79.4369C41.9357 79.1253 41.8747 78.8166 41.7555 78.5288C41.6362 78.2409 41.461 77.9796 41.24 77.76C40.7952 77.3153 40.192 77.0656 39.5631 77.0656C38.9342 77.0656 38.331 77.3153 37.8862 77.76C36.982 79.3924 36.3469 81.16 36.0054 82.9946C37.8407 82.6516 39.6089 82.0158 41.2423 81.1114C41.4626 80.8918 41.6372 80.6308 41.7561 80.3434C41.875 80.056 41.9357 79.7479 41.9349 79.4369Z" fill="#4BFFC6"/>
<g style="mix-blend-mode:plus-lighter" filter="url(#filter0_f_2001_11)">
<ellipse cx="58" cy="75" rx="25" ry="14" fill="#05FF59" fill-opacity="0.4"/>
</g>
<defs>
<filter id="filter0_f_2001_11" x="8" y="36" width="100" height="78" filterUnits="userSpaceOnUse" color-interpolation-filters="sRGB">
<feFlood flood-opacity="0" result="BackgroundImageFix"/>
<feBlend mode="normal" in="SourceGraphic" in2="BackgroundImageFix" result="shape"/>
<feGaussianBlur stdDeviation="12.5" result="effect1_foregroundBlur_2001_11"/>
</filter>
</defs>
</svg>
