<svg width="151" height="27" viewBox="0 0 151 27" fill="none" xmlns="http://www.w3.org/2000/svg">
<path d="M26.6061 0.257812H0.0253296V26.8386H26.6061V0.257812Z" fill="#219653"/>
<path d="M13.316 17.673L17.3585 16.6485L19.0475 21.8539L13.316 17.673ZM22.6193 10.9447H15.5034L13.316 4.24414L11.1286 10.9447H4.0127L9.77187 15.098L7.58449 21.7986L13.3437 17.6453L16.8878 15.098L22.6193 10.9447Z" fill="white"/>
<path d="M57.6171 0.257812H31.0363V26.8386H57.6171V0.257812Z" fill="#219653"/>
<path d="M44.3269 17.673L48.3694 16.6485L50.0584 21.8539L44.3269 17.673ZM53.6302 10.9447H46.5143L44.3269 4.24414L42.1395 10.9447H35.0236L40.7828 15.098L38.5954 21.7986L44.3546 17.6453L47.8987 15.098L53.6302 10.9447Z" fill="white"/>
<path d="M88.6281 0.257812H62.0472V26.8386H88.6281V0.257812Z" fill="#219653"/>
<path d="M75.3378 17.673L79.3803 16.6485L81.0693 21.8539L75.3378 17.673ZM84.6411 10.9447H77.5252L75.3378 4.24414L73.1505 10.9447H66.0345L71.7937 15.098L69.6063 21.7986L75.3655 17.6453L78.9096 15.098L84.6411 10.9447Z" fill="white"/>
<path d="M119.639 0.257812H93.0582V26.8386H119.639V0.257812Z" fill="#219653"/>
<path d="M106.349 17.673L110.391 16.6485L112.08 21.8539L106.349 17.673ZM115.652 10.9447H108.536L106.349 4.24414L104.161 10.9447H97.0455L102.805 15.098L100.617 21.7986L106.377 17.6453L109.921 15.098L115.652 10.9447Z" fill="white"/>
<path d="M150.65 0.257812H124.069V26.8386H150.65V0.257812Z" fill="#219653"/>
<path d="M137.36 17.673L141.402 16.6485L143.091 21.8539L137.36 17.673ZM146.663 10.9447H139.547L137.36 4.24414L135.172 10.9447H128.056L133.816 15.098L131.628 21.7986L137.387 17.6453L140.931 15.098L146.663 10.9447Z" fill="white"/>
</svg>
