<svg width="432" height="51" viewBox="0 0 432 51" fill="none" xmlns="http://www.w3.org/2000/svg">
<path d="M3.07571 35.9014V11.7104H17.6249V14.8206H6.46245V22.0088H16.519V25.05H6.46245V32.7911H17.694V35.9014H3.07571ZM19.7267 35.9014L26.8112 25.9831L31.7531 18.6221H35.6237L28.9539 28.0566L23.6664 35.9014H19.7267ZM32.1333 35.9014L26.9149 28.0566L20.176 18.6221H24.0465L29.023 25.9831L36.0384 35.9014H32.1333ZM45.2102 36.3161C43.4822 36.3161 41.9501 35.9359 40.6139 35.1756C39.2776 34.3923 38.2293 33.321 37.469 31.9617C36.7318 30.6024 36.3632 29.0357 36.3632 27.2617C36.3632 25.4877 36.7318 23.9211 37.469 22.5618C38.2293 21.2025 39.2661 20.1427 40.5793 19.3824C41.9156 18.599 43.4361 18.2074 45.141 18.2074C46.8229 18.2074 48.3319 18.599 49.6682 19.3824C51.0275 20.1657 52.0412 21.2831 52.7094 22.7346L49.7373 23.9787C49.2996 23.1262 48.666 22.4581 47.8366 21.9743C47.0302 21.4904 46.0972 21.2485 45.0374 21.2485C44.0006 21.2485 43.079 21.502 42.2727 22.0088C41.4663 22.5157 40.8327 23.2299 40.372 24.1515C39.9112 25.05 39.6808 26.0867 39.6808 27.2617C39.6808 28.4367 39.9112 29.4735 40.372 30.372C40.8327 31.2705 41.4778 31.9847 42.3072 32.5146C43.1366 33.0215 44.0697 33.2749 45.1065 33.2749C46.1663 33.2749 47.1109 33.01 47.9403 32.4801C48.7697 31.9271 49.3917 31.1899 49.8064 30.2683L52.813 31.4779C52.1449 32.9984 51.1312 34.185 49.7719 35.0374C48.4356 35.8898 46.915 36.3161 45.2102 36.3161ZM62.662 36.3161C60.9801 36.3161 59.4941 35.9359 58.2039 35.1756C56.9137 34.3923 55.9 33.321 55.1627 31.9617C54.4255 30.6024 54.0569 29.0357 54.0569 27.2617C54.0569 25.4877 54.4255 23.9211 55.1627 22.5618C55.9 21.2025 56.9137 20.1427 58.2039 19.3824C59.5171 18.599 61.0147 18.2074 62.6965 18.2074C64.2862 18.2074 65.6801 18.6106 66.8781 19.4169C68.0761 20.2003 69.0092 21.3292 69.6773 22.8037C70.3685 24.2551 70.7141 25.9715 70.7141 27.9529H56.7524L57.3745 27.4345C57.3745 28.6556 57.6164 29.7154 58.1002 30.6139C58.584 31.5124 59.2407 32.2036 60.0701 32.6874C60.8995 33.1482 61.8441 33.3786 62.9039 33.3786C64.0558 33.3786 65.0119 33.1136 65.7722 32.5837C66.5556 32.0308 67.1661 31.3396 67.6038 30.5102L70.4376 31.8235C69.9769 32.722 69.3778 33.5168 68.6406 34.208C67.9033 34.8761 67.0279 35.3945 66.0141 35.7631C65.0235 36.1318 63.9061 36.3161 62.662 36.3161ZM57.5818 25.8794L56.9252 25.361H67.8457L67.2237 25.8794C67.2237 24.8657 67.0163 24.0017 66.6016 23.2875C66.1869 22.5502 65.634 21.9973 64.9428 21.6287C64.2516 21.237 63.4798 21.0412 62.6274 21.0412C61.798 21.0412 60.9916 21.237 60.2083 21.6287C59.448 21.9973 58.8144 22.5387 58.3076 23.2529C57.8238 23.9671 57.5818 24.8426 57.5818 25.8794ZM72.9207 35.9014V11.7104H76.2038V35.9014H72.9207ZM79.7136 35.9014V11.7104H82.9967V35.9014H79.7136ZM94.144 36.3161C92.4621 36.3161 90.9761 35.9359 89.6859 35.1756C88.3958 34.3923 87.382 33.321 86.6448 31.9617C85.9075 30.6024 85.5389 29.0357 85.5389 27.2617C85.5389 25.4877 85.9075 23.9211 86.6448 22.5618C87.382 21.2025 88.3958 20.1427 89.6859 19.3824C90.9992 18.599 92.4967 18.2074 94.1786 18.2074C95.7682 18.2074 97.1621 18.6106 98.3601 19.4169C99.5582 20.2003 100.491 21.3292 101.159 22.8037C101.851 24.2551 102.196 25.9715 102.196 27.9529H88.2345L88.8565 27.4345C88.8565 28.6556 89.0984 29.7154 89.5823 30.6139C90.0661 31.5124 90.7227 32.2036 91.5521 32.6874C92.3815 33.1482 93.3261 33.3786 94.3859 33.3786C95.5379 33.3786 96.494 33.1136 97.2543 32.5837C98.0376 32.0308 98.6481 31.3396 99.0859 30.5102L101.92 31.8235C101.459 32.722 100.86 33.5168 100.123 34.208C99.3854 34.8761 98.5099 35.3945 97.4962 35.7631C96.5055 36.1318 95.3881 36.3161 94.144 36.3161ZM89.0639 25.8794L88.4073 25.361H99.3278L98.7057 25.8794C98.7057 24.8657 98.4984 24.0017 98.0837 23.2875C97.669 22.5502 97.116 21.9973 96.4249 21.6287C95.7337 21.237 94.9619 21.0412 94.1094 21.0412C93.28 21.0412 92.4737 21.237 91.6903 21.6287C90.93 21.9973 90.2965 22.5387 89.7896 23.2529C89.3058 23.9671 89.0639 24.8426 89.0639 25.8794ZM104.403 35.9014V18.6221H107.478L107.686 21.8015V35.9014H104.403ZM116.36 35.9014V27.0544H119.643V35.9014H116.36ZM116.36 27.0544C116.36 25.4877 116.176 24.3012 115.807 23.4948C115.461 22.6654 114.966 22.0895 114.321 21.7669C113.699 21.4444 112.973 21.2716 112.144 21.2485C110.738 21.2485 109.644 21.7439 108.861 22.7346C108.077 23.7252 107.686 25.1191 107.686 26.9161H106.269C106.269 25.0961 106.534 23.5409 107.064 22.2507C107.617 20.9375 108.389 19.9353 109.379 19.2441C110.393 18.553 111.591 18.2074 112.973 18.2074C114.333 18.2074 115.508 18.4839 116.498 19.0368C117.512 19.5897 118.284 20.4537 118.814 21.6287C119.367 22.7806 119.643 24.3012 119.643 26.1904V27.0544H116.36ZM129.407 36.3161C127.68 36.3161 126.343 35.8783 125.399 35.0028C124.454 34.1043 123.982 32.8257 123.982 31.1668V13.231H127.265V30.683C127.265 31.5355 127.472 32.1921 127.887 32.6529C128.325 33.0906 128.947 33.3095 129.753 33.3095C129.983 33.3095 130.237 33.2634 130.513 33.1712C130.79 33.0791 131.124 32.8948 131.516 32.6183L132.76 35.1756C132.161 35.5673 131.585 35.8553 131.032 36.0396C130.502 36.2239 129.96 36.3161 129.407 36.3161ZM121.044 21.4559V18.6221H132.172V21.4559H121.044Z" fill="white"/>
<rect width="50.5556" height="50.5556" transform="translate(159)" fill="#219653"/>
<path d="M184.278 34.5703L191.966 32.5115L195.179 42.9724L184.278 34.5703ZM201.972 21.0491H188.438L184.278 7.5835L180.117 21.0491H166.583L177.537 29.3955L173.377 42.8611L184.33 34.5147L191.071 29.3955L201.972 21.0491Z" fill="white"/>
<rect width="50.5556" height="50.5556" transform="translate(214.611)" fill="#219653"/>
<path d="M239.889 34.5703L247.577 32.5115L250.79 42.9724L239.889 34.5703ZM257.583 21.0491H244.049L239.889 7.5835L235.729 21.0491H222.194L233.148 29.3955L228.988 42.8611L239.942 34.5147L246.682 29.3955L257.583 21.0491Z" fill="white"/>
<rect width="50.5556" height="50.5556" transform="translate(270.222)" fill="#219653"/>
<path d="M295.5 34.5703L303.189 32.5115L306.401 42.9724L295.5 34.5703ZM313.194 21.0491H299.66L295.5 7.5835L291.34 21.0491H277.806L288.759 29.3955L284.599 42.8611L295.553 34.5147L302.293 29.3955L313.194 21.0491Z" fill="white"/>
<rect width="50.5556" height="50.5556" transform="translate(325.833)" fill="#219653"/>
<path d="M351.111 34.5703L358.8 32.5115L362.012 42.9724L351.111 34.5703ZM368.806 21.0491H355.271L351.111 7.5835L346.951 21.0491H333.417L344.37 29.3955L340.21 42.8611L351.164 34.5147L357.904 29.3955L368.806 21.0491Z" fill="white"/>
<rect width="50.5556" height="50.5556" transform="translate(381.444)" fill="url(#paint0_linear_2007_6)"/>
<rect x="406.722" y="-0.000488281" width="25.2778" height="50.5556" fill="#D9D9D9"/>
<path d="M406.722 34.5698L414.411 32.511L417.623 42.9719L406.722 34.5698ZM424.417 21.0486H410.883L406.722 7.58301L402.562 21.0486H389.028L399.982 29.395L395.821 42.8606L406.775 34.5142L413.516 29.395L424.417 21.0486Z" fill="white"/>
<defs>
<linearGradient id="paint0_linear_2007_6" x1="0" y1="25.2778" x2="50.5556" y2="25.2778" gradientUnits="userSpaceOnUse">
<stop stop-color="#219653"/>
<stop offset="0.5" stop-color="#219653"/>
<stop offset="0.5001" stop-color="#219653" stop-opacity="0"/>
<stop offset="0.5002" stop-color="#219653"/>
<stop offset="0.9998" stop-color="#219653"/>
<stop offset="0.9999" stop-color="#219653" stop-opacity="0"/>
<stop offset="1" stop-color="#219653"/>
</linearGradient>
</defs>
</svg>
