<svg width="130" height="30" viewBox="0 0 130 30" fill="none" xmlns="http://www.w3.org/2000/svg">
<path d="M31.0986 11.2968H19.2175L15.5601 0L11.8811 11.2968L0 11.2751L9.60875 18.2653L5.92973 29.5621L15.5385 22.5719L25.1472 29.5621L21.4898 18.2653L31.0986 11.2968Z" fill="#00B67A"/>
<path d="M34.2803 8.98145H47.4166V11.4269H42.2443V25.2124H39.4093V11.4269H34.2587L34.2803 8.98145ZM46.8539 13.4612H49.2778V15.7335H49.321C49.4076 15.4089 49.5591 15.1059 49.7755 14.803C49.9919 14.5 50.2516 14.2186 50.5762 13.9806C50.8792 13.7209 51.2255 13.5261 51.615 13.3746C51.9829 13.2231 52.3725 13.1366 52.762 13.1366C53.065 13.1366 53.2814 13.1582 53.3896 13.1582C53.4978 13.1799 53.6277 13.2015 53.7359 13.2015V15.6903C53.5627 15.647 53.368 15.6253 53.1732 15.6037C52.9784 15.582 52.8053 15.5604 52.6105 15.5604C52.1777 15.5604 51.7665 15.647 51.377 15.8201C50.9874 15.9932 50.6628 16.2529 50.3598 16.5775C50.0785 16.9238 49.8404 17.335 49.6673 17.8327C49.4942 18.3305 49.4076 18.9148 49.4076 19.5641V25.1475H46.8106L46.8539 13.4612ZM65.6386 25.2124H63.0849V23.5677H63.0416C62.717 24.1737 62.2409 24.6281 61.6133 24.996C60.9857 25.3639 60.3365 25.5371 59.6872 25.5371C58.1507 25.5371 57.0254 25.1692 56.3328 24.3901C55.6403 23.6326 55.294 22.464 55.294 20.9275V13.4612H57.891V20.6678C57.891 21.7065 58.0858 22.4423 58.497 22.8535C58.8865 23.2864 59.4492 23.5028 60.1633 23.5028C60.7044 23.5028 61.1588 23.4162 61.5268 23.2431C61.8947 23.07 62.1976 22.8535 62.414 22.5722C62.6521 22.2909 62.8036 21.9446 62.9118 21.5551C63.02 21.1655 63.0633 20.7327 63.0633 20.2782V13.4612H65.6602V25.2124H65.6386ZM70.0534 21.4468C70.14 22.2043 70.4213 22.7237 70.9191 23.0483C71.4168 23.3513 72.0228 23.5028 72.7153 23.5028C72.9534 23.5028 73.2347 23.4811 73.5377 23.4379C73.8407 23.3946 74.1437 23.3296 74.4033 23.2214C74.6847 23.1132 74.9011 22.9617 75.0742 22.7453C75.2474 22.5289 75.3339 22.2692 75.3123 21.9446C75.2906 21.62 75.1824 21.3386 74.9444 21.1222C74.7063 20.9058 74.425 20.7543 74.0787 20.6028C73.7325 20.473 73.3213 20.3648 72.8668 20.2782C72.4123 20.1917 71.9579 20.0834 71.4818 19.9752C71.0057 19.867 70.5295 19.7372 70.0751 19.5857C69.6206 19.4342 69.2311 19.2394 68.8632 18.9581C68.5169 18.6984 68.2139 18.3738 68.0192 17.9626C67.8027 17.5514 67.6945 17.0753 67.6945 16.4693C67.6945 15.8201 67.846 15.3007 68.1706 14.8679C68.4736 14.4351 68.8848 14.0888 69.3609 13.8291C69.837 13.5694 70.3781 13.3746 70.9624 13.2664C71.5467 13.1582 72.1094 13.1149 72.6288 13.1149C73.2347 13.1149 73.819 13.1799 74.3601 13.3097C74.9011 13.4396 75.4205 13.6343 75.8533 13.9373C76.3078 14.2186 76.6757 14.6082 76.957 15.0627C77.26 15.5171 77.4331 16.0798 77.5197 16.729H74.8145C74.6847 16.1014 74.4033 15.6903 73.9705 15.4738C73.5161 15.2574 73.0183 15.1492 72.434 15.1492C72.2609 15.1492 72.0228 15.1709 71.7847 15.1925C71.525 15.2358 71.3086 15.2791 71.0706 15.3656C70.8542 15.4522 70.6594 15.582 70.5079 15.7335C70.3564 15.885 70.2698 16.1014 70.2698 16.3611C70.2698 16.6858 70.3781 16.9238 70.5945 17.1186C70.8109 17.3134 71.0922 17.4648 71.4601 17.6163C71.8064 17.7462 72.2176 17.8544 72.672 17.941C73.1265 18.0275 73.6026 18.1357 74.0787 18.2439C74.5548 18.3521 75.0093 18.482 75.4638 18.6335C75.9182 18.785 76.3294 18.9797 76.6757 19.2611C77.0219 19.5208 77.3249 19.8454 77.5413 20.2349C77.7578 20.6245 77.866 21.1222 77.866 21.6849C77.866 22.3774 77.7145 22.9617 77.3898 23.4595C77.0652 23.9356 76.654 24.3468 76.1563 24.6498C75.6585 24.9527 75.0742 25.1692 74.4683 25.3207C73.8407 25.4505 73.2347 25.5371 72.6288 25.5371C71.8929 25.5371 71.2004 25.4505 70.5728 25.2774C69.9452 25.1042 69.3826 24.8445 68.9281 24.5199C68.4736 24.1737 68.1057 23.7625 67.846 23.2431C67.5863 22.7453 67.4348 22.1394 67.4132 21.4252H70.0318V21.4468H70.0534ZM78.6018 13.4612H80.5711V9.91202H83.1681V13.4396H85.5053V15.3656H83.1681V21.6416C83.1681 21.923 83.1897 22.1394 83.2114 22.3558C83.233 22.5506 83.2979 22.7237 83.3629 22.8535C83.4494 22.9834 83.5793 23.0916 83.7308 23.1565C83.9039 23.2214 84.1203 23.2647 84.4233 23.2647C84.5964 23.2647 84.7912 23.2647 84.9643 23.2431C85.1374 23.2214 85.3322 23.1998 85.5053 23.1565V25.1692C85.224 25.2124 84.9427 25.2341 84.6613 25.2557C84.38 25.299 84.1203 25.299 83.8173 25.299C83.1248 25.299 82.5838 25.2341 82.1726 25.1042C81.7614 24.9744 81.4368 24.7796 81.1987 24.5416C80.9607 24.2819 80.8092 23.9789 80.7226 23.611C80.636 23.2431 80.5928 22.7886 80.5711 22.3125V15.3873H78.6018V13.4179V13.4612ZM87.3232 13.4612H89.7687V15.0627H89.812C90.1799 14.3701 90.6776 13.894 91.3269 13.591C91.9761 13.2881 92.6686 13.1366 93.4477 13.1366C94.3783 13.1366 95.179 13.2881 95.8715 13.6343C96.5641 13.959 97.1268 14.3918 97.5812 14.9761C98.0357 15.5388 98.3819 16.2096 98.5984 16.9671C98.8148 17.7245 98.9446 18.5469 98.9446 19.3909C98.9446 20.1917 98.8364 20.9491 98.6416 21.6849C98.4252 22.4207 98.1222 23.0916 97.7111 23.6543C97.2999 24.2169 96.7805 24.6714 96.1312 25.0177C95.482 25.3639 94.7462 25.5371 93.8806 25.5371C93.5126 25.5371 93.1231 25.4938 92.7552 25.4289C92.3873 25.3639 92.0194 25.2557 91.6731 25.1042C91.3269 24.9527 91.0023 24.758 90.7209 24.5199C90.4179 24.2819 90.1799 24.0005 89.9851 23.6976H89.9418V29.5623H87.3449V13.4612H87.3232ZM96.3909 19.3476C96.3909 18.8283 96.326 18.3089 96.1745 17.8111C96.0447 17.3134 95.8283 16.8805 95.5469 16.491C95.2656 16.1014 94.9193 15.7985 94.5298 15.5604C94.1186 15.3224 93.6425 15.2141 93.1231 15.2141C92.041 15.2141 91.2187 15.5821 90.656 16.3395C90.115 17.0969 89.8336 18.1141 89.8336 19.3693C89.8336 19.9752 89.8985 20.5163 90.05 21.014C90.2015 21.5118 90.3963 21.9446 90.6993 22.3125C90.9806 22.6804 91.3269 22.9617 91.7381 23.1782C92.1492 23.3946 92.6037 23.5028 93.1447 23.5028C93.7507 23.5028 94.2268 23.3729 94.638 23.1349C95.0492 22.8968 95.3738 22.5722 95.6551 22.2043C95.9148 21.8148 96.1096 21.3819 96.2178 20.8842C96.326 20.3648 96.3909 19.867 96.3909 19.3476ZM100.957 8.98145H103.554V11.4269H100.957V8.98145ZM100.957 13.4612H103.554V25.2124H100.957V13.4612ZM105.87 8.98145H108.467V25.2124H105.87V8.98145ZM116.388 25.5371C115.457 25.5371 114.613 25.3856 113.877 25.061C113.141 24.7363 112.535 24.3251 112.016 23.7841C111.518 23.2431 111.129 22.5722 110.869 21.8148C110.609 21.0573 110.458 20.2133 110.458 19.326C110.458 18.4387 110.588 17.6163 110.869 16.8589C111.129 16.1014 111.518 15.4522 112.016 14.8895C112.514 14.3485 113.141 13.9157 113.877 13.6127C114.613 13.3097 115.457 13.1366 116.388 13.1366C117.318 13.1366 118.162 13.2881 118.898 13.6127C119.634 13.9157 120.24 14.3485 120.759 14.8895C121.257 15.4306 121.646 16.1014 121.906 16.8589C122.166 17.6163 122.317 18.4387 122.317 19.326C122.317 20.2349 122.187 21.0573 121.906 21.8148C121.625 22.5722 121.257 23.2214 120.759 23.7841C120.261 24.3251 119.634 24.758 118.898 25.061C118.162 25.3639 117.34 25.5371 116.388 25.5371ZM116.388 23.4811C116.95 23.4811 117.47 23.3513 117.881 23.1132C118.314 22.8752 118.638 22.5506 118.92 22.161C119.201 21.7715 119.396 21.317 119.526 20.8409C119.655 20.3431 119.72 19.8454 119.72 19.326C119.72 18.8282 119.655 18.3305 119.526 17.8327C119.396 17.335 119.201 16.9022 118.92 16.5126C118.638 16.1231 118.292 15.8201 117.881 15.5821C117.448 15.344 116.95 15.2141 116.388 15.2141C115.825 15.2141 115.305 15.344 114.894 15.5821C114.461 15.8201 114.137 16.1447 113.856 16.5126C113.574 16.9022 113.379 17.335 113.25 17.8327C113.12 18.3305 113.055 18.8282 113.055 19.326C113.055 19.8454 113.12 20.3431 113.25 20.8409C113.379 21.3386 113.574 21.7715 113.856 22.161C114.137 22.5506 114.483 22.8752 114.894 23.1132C115.327 23.3729 115.825 23.4811 116.388 23.4811ZM123.096 13.4612H125.066V9.91202H127.663V13.4396H130V15.3656H127.663V21.6416C127.663 21.923 127.684 22.1394 127.706 22.3558C127.728 22.5506 127.793 22.7237 127.857 22.8535C127.944 22.9834 128.074 23.0916 128.225 23.1565C128.398 23.2214 128.615 23.2647 128.918 23.2647C129.091 23.2647 129.286 23.2647 129.459 23.2431C129.632 23.2214 129.827 23.1998 130 23.1565V25.1692C129.719 25.2124 129.437 25.2341 129.156 25.2557C128.875 25.299 128.615 25.299 128.312 25.299C127.619 25.299 127.078 25.2341 126.667 25.1042C126.256 24.9744 125.931 24.7796 125.693 24.5416C125.455 24.2819 125.304 23.9789 125.217 23.611C125.131 23.2431 125.087 22.7886 125.066 22.3125V15.3873H123.096V13.4179V13.4612Z" fill="white"/>
<path d="M23.7413 20.2454L23.1417 17.0664L16.2909 21.7066L23.7413 20.2454Z" fill="black"/>
</svg>
