<svg width="94" height="94" viewBox="0 0 94 94" fill="none" xmlns="http://www.w3.org/2000/svg">
<rect width="94" height="94" rx="47" fill="#000704"/>
<path d="M67.7108 27.953H63.2023C63.2248 27.4005 63.2367 26.8457 63.2367 26.2891C63.2367 25.5772 62.6595 25 61.9476 25H32.0524C31.3405 25 30.7633 25.5772 30.7633 26.2891C30.7633 26.8457 30.7751 27.4006 30.7977 27.953H26.2891C25.5772 27.953 25 28.5301 25 29.242V32.0128C25 39.6059 30.4865 45.9413 37.7033 47.2643C38.3214 47.9397 38.9709 48.5488 39.648 49.0849C41.8726 50.8462 43.1484 53.4427 43.1484 56.2086V61.2656H38.2497C37.5378 61.2656 36.9607 61.8428 36.9607 62.5547V66.4219H35.6716C34.9597 66.4219 34.3825 66.999 34.3825 67.7109C34.3825 68.4228 34.9597 69 35.6716 69H58.3286C59.0405 69 59.6176 68.4228 59.6176 67.7109C59.6176 66.999 59.0405 66.4219 58.3286 66.4219H57.0395V62.5547C57.0395 61.8428 56.4623 61.2656 55.7504 61.2656H50.8517V56.2086C50.8517 53.4426 52.1275 50.8462 54.352 49.0848C55.0291 48.5487 55.6786 47.9396 56.2967 47.2643C63.5135 45.9413 69 39.6059 69 32.0128V29.242C68.9999 28.5301 68.4228 27.953 67.7108 27.953ZM27.5781 32.0128V30.5311H30.9858C31.3312 33.8034 32.0748 36.9402 33.1865 39.7672C33.7528 41.2075 34.4061 42.5468 35.1342 43.7704C30.6797 41.7271 27.5781 37.2256 27.5781 32.0128ZM66.4218 32.0128C66.4218 37.2256 63.3202 41.7272 58.8658 43.7705C59.5939 42.5469 60.2472 41.2076 60.8135 39.7673C61.9252 36.9402 62.6687 33.8034 63.0141 30.5312H66.4217L66.4218 32.0128Z" fill="url(#paint0_linear_9_1498)"/>
<defs>
<linearGradient id="paint0_linear_9_1498" x1="58" y1="71.5" x2="25" y2="25" gradientUnits="userSpaceOnUse">
<stop stop-color="#001E10"/>
<stop offset="1" stop-color="#00FF8B"/>
</linearGradient>
</defs>
</svg>
