<svg width="94" height="94" viewBox="0 0 94 94" fill="none" xmlns="http://www.w3.org/2000/svg">
<rect width="94" height="94" rx="47" fill="#000704"/>
<path d="M29.5263 46.2083V55.2718C29.5263 57.1525 31.0426 58.6706 32.9211 58.6706C34.7995 58.6706 36.3158 57.1525 36.3158 55.2718V46.2083C36.3158 44.3276 34.7995 42.8094 32.9211 42.8094C31.0426 42.8094 29.5263 44.3276 29.5263 46.2083ZM43.1053 46.2083V55.2718C43.1053 57.1525 44.6216 58.6706 46.5 58.6706C48.3784 58.6706 49.8947 57.1525 49.8947 55.2718V46.2083C49.8947 44.3276 48.3784 42.8094 46.5 42.8094C44.6216 42.8094 43.1053 44.3276 43.1053 46.2083ZM28.3947 70H64.6053C66.4837 70 68 68.4819 68 66.6012C68 64.7205 66.4837 63.2024 64.6053 63.2024H28.3947C26.5163 63.2024 25 64.7205 25 66.6012C25 68.4819 26.5163 70 28.3947 70ZM56.6842 46.2083V55.2718C56.6842 57.1525 58.2005 58.6706 60.0789 58.6706C61.9574 58.6706 63.4737 57.1525 63.4737 55.2718V46.2083C63.4737 44.3276 61.9574 42.8094 60.0789 42.8094C58.2005 42.8094 56.6842 44.3276 56.6842 46.2083ZM44.3953 23.5268L26.5163 32.9529C25.5884 33.4287 25 34.403 25 35.4453C25 37.0088 26.2674 38.2777 27.8289 38.2777H65.1937C66.7326 38.2777 68 37.0088 68 35.4453C68 34.403 67.4116 33.4287 66.4837 32.9529L48.6047 23.5268C47.2921 22.8244 45.7079 22.8244 44.3953 23.5268Z" fill="url(#paint0_linear_11_1506)"/>
<defs>
<linearGradient id="paint0_linear_11_1506" x1="46.5" y1="23" x2="46.5" y2="70" gradientUnits="userSpaceOnUse">
<stop stop-color="#004023"/>
<stop offset="1" stop-color="#00E97E"/>
</linearGradient>
</defs>
</svg>
