<svg width="94" height="94" viewBox="0 0 94 94" fill="none" xmlns="http://www.w3.org/2000/svg">
<rect width="94" height="94" rx="47" fill="#000704"/>
<path d="M31.7656 53.0938V56.1406C31.7656 61.1811 35.8658 65.2812 40.9062 65.2812H43.9531V73H50.0469V65.2812H52.3439C57.7979 65.2812 62.2344 60.8448 62.2344 55.3908C62.2344 50.8428 59.1533 46.8973 54.7421 45.795L50.0469 44.6209V34.8125H53.0938C54.7734 34.8125 56.1406 36.1797 56.1406 37.8594V40.9062H62.2344V37.8594C62.2344 32.8189 58.1342 28.7188 53.0938 28.7188H50.0469V21H43.9531V28.7188H41.6561C36.2021 28.7188 31.7656 33.1552 31.7656 38.6092C31.7656 43.1572 34.8467 47.1027 39.2579 48.205L43.9531 49.3791V59.1875H40.9062C39.2266 59.1875 37.8594 57.8203 37.8594 56.1406V53.0938H31.7656ZM50.0469 50.9028L53.2634 51.7071C54.9579 52.1296 56.1406 53.6441 56.1406 55.3908C56.1406 57.484 54.4372 59.1875 52.3439 59.1875H50.0469V50.9028ZM40.7366 42.2928C39.0421 41.8703 37.8594 40.3558 37.8594 38.6091C37.8594 36.5159 39.5628 34.8124 41.6561 34.8124H43.9531V43.0971L40.7366 42.2928Z" fill="url(#paint0_linear_11_1507)"/>
<defs>
<linearGradient id="paint0_linear_11_1507" x1="47" y1="21" x2="47" y2="73" gradientUnits="userSpaceOnUse">
<stop stop-color="#003A20"/>
<stop offset="1" stop-color="#00EA7F"/>
</linearGradient>
</defs>
</svg>
