<svg width="64" height="64" viewBox="0 0 64 64" fill="none" xmlns="http://www.w3.org/2000/svg">
<rect x="0.828125" y="0.518799" width="63.1125" height="63.1125" rx="31.5562" fill="url(#paint0_linear_90_7125)"/>
<g clip-path="url(#clip0_90_7125)">
<g clip-path="url(#clip1_90_7125)">
<path fill-rule="evenodd" clip-rule="evenodd" d="M32.3838 22.9723C30.0237 22.9723 28.1105 24.8855 28.1105 27.2455C28.1105 29.6055 30.0237 31.5188 32.3838 31.5188C34.7438 31.5188 36.657 29.6055 36.657 27.2455C36.657 24.8855 34.7438 22.9723 32.3838 22.9723ZM26.1383 27.2455C26.1383 23.7962 28.9345 21 32.3838 21C35.8331 21 38.6293 23.7962 38.6293 27.2455C38.6293 30.6948 35.8331 33.491 32.3838 33.491C28.9345 33.491 26.1383 30.6948 26.1383 27.2455ZM28.314 36.1207C28.3552 36.1207 28.3969 36.1207 28.4392 36.1207H36.3283C36.3706 36.1207 36.4123 36.1207 36.4535 36.1207C37.5555 36.1205 38.2569 36.1204 38.8616 36.2408C41.3391 36.7336 43.2758 38.6703 43.7686 41.1478C43.886 41.7375 43.8881 42.4114 43.8887 43.4405V43.4432C43.8887 43.4553 43.8888 43.5012 43.8855 43.5503C43.8815 43.6074 43.8713 43.7031 43.8364 43.8148C43.7505 44.089 43.5678 44.299 43.344 44.4303C43.1666 44.5345 42.9891 44.5737 42.8841 44.5929C42.7658 44.6142 42.6369 44.6265 42.5065 44.6351C42.0139 44.6672 41.0728 44.6672 39.3214 44.6672H25.4461C23.6948 44.6672 22.7536 44.6672 22.2611 44.6351C22.1305 44.6265 22.0017 44.6142 21.8834 44.5929C21.7784 44.5737 21.601 44.5345 21.4235 44.4303C21.1997 44.299 21.0169 44.089 20.9311 43.8148C20.8962 43.7031 20.886 43.6074 20.8821 43.5503C20.8787 43.501 20.8789 43.4553 20.8789 43.4432V43.4411C20.8793 42.4118 20.8816 41.7375 20.9989 41.1478C21.4917 38.6703 23.4284 36.7336 25.906 36.2408C26.5107 36.1204 27.212 36.1205 28.314 36.1207ZM28.4392 38.093C27.1701 38.093 26.6795 38.0977 26.2907 38.175C24.5956 38.5123 23.2704 39.8373 22.9333 41.5326C22.8813 41.7938 22.8617 42.1059 22.8547 42.6841C23.3693 42.6946 24.199 42.6949 25.5466 42.6949H39.221C40.5684 42.6949 41.3982 42.6946 41.9129 42.6841C41.9059 42.1059 41.8862 41.7938 41.8344 41.5326C41.4971 39.8373 40.172 38.5123 38.4768 38.175C38.0881 38.0977 37.5974 38.093 36.3283 38.093H28.4392ZM41.9164 43.4414C41.9164 43.4707 41.9148 43.4644 41.9164 43.4363V43.4414ZM42.5295 42.6527C42.5374 42.6509 42.5389 42.6509 42.5326 42.6521L42.5295 42.6527ZM22.2349 42.6521C22.2286 42.6509 22.2301 42.6509 22.238 42.6527L22.2349 42.6521ZM22.8512 43.4363C22.8527 43.4644 22.8512 43.4707 22.8512 43.4414V43.4363Z" fill="white"/>
</g>
</g>
<defs>
<linearGradient id="paint0_linear_90_7125" x1="32.3844" y1="0.518799" x2="32.3844" y2="63.6313" gradientUnits="userSpaceOnUse">
<stop stop-color="#004426"/>
<stop offset="1" stop-color="#002C18"/>
</linearGradient>
<clipPath id="clip0_90_7125">
<rect width="31.5562" height="31.5562" fill="white" transform="translate(16.6055 19.1545)"/>
</clipPath>
<clipPath id="clip1_90_7125">
<rect width="31.5562" height="31.5562" fill="white" transform="translate(16.6055 19.1545)"/>
</clipPath>
</defs>
</svg>
