<svg width="64" height="64" viewBox="0 0 64 64" fill="none" xmlns="http://www.w3.org/2000/svg">
<rect x="0.828125" y="0.793701" width="63.1125" height="63.1125" rx="31.5562" fill="url(#paint0_linear_90_7142)"/>
<g clip-path="url(#clip0_90_7142)">
<g clip-path="url(#clip1_90_7142)">
<g clip-path="url(#clip2_90_7142)">
<path d="M38.958 26.5742H25.8096" stroke="white" stroke-width="1.97227" stroke-linecap="round" stroke-linejoin="round"/>
<path d="M38.958 31.8336H25.8096" stroke="white" stroke-width="1.97227" stroke-linecap="round" stroke-linejoin="round"/>
<path d="M32.3838 37.093H25.8096" stroke="white" stroke-width="1.97227" stroke-linecap="round" stroke-linejoin="round"/>
<path d="M41.5883 20H23.1805C21.7281 20 20.5508 21.1773 20.5508 22.6297V42.5554C20.5508 44.3767 22.3575 45.6465 24.0712 45.0295L26.1247 44.2902C26.7663 44.0594 27.4726 44.0865 28.0945 44.3665L31.3052 45.8113C31.9915 46.1202 32.7772 46.1202 33.4635 45.8113L36.6743 44.3665C37.2961 44.0865 38.0024 44.0594 38.6441 44.2902L40.6975 45.0295C42.4112 45.6465 44.218 44.3767 44.218 42.5554V22.6297C44.218 21.1773 43.0406 20 41.5883 20Z" stroke="white" stroke-width="1.97227" stroke-linecap="round"/>
</g>
</g>
</g>
<defs>
<linearGradient id="paint0_linear_90_7142" x1="32.3844" y1="0.793701" x2="32.3844" y2="63.9062" gradientUnits="userSpaceOnUse">
<stop stop-color="#004426"/>
<stop offset="1" stop-color="#002C18"/>
</linearGradient>
<clipPath id="clip0_90_7142">
<rect width="31.5562" height="31.5562" fill="white" transform="translate(16.6055 19.4294)"/>
</clipPath>
<clipPath id="clip1_90_7142">
<rect width="31.5562" height="31.5562" fill="white" transform="translate(16.6055 19.4294)"/>
</clipPath>
<clipPath id="clip2_90_7142">
<rect width="31.5562" height="31.5562" fill="white" transform="translate(16.6055 19.4294)"/>
</clipPath>
</defs>
</svg>
