<svg width="82" height="81" viewBox="0 0 82 81" fill="none" xmlns="http://www.w3.org/2000/svg">
<g clip-path="url(#clip0_90_7250)">
<path d="M37.9401 12.3079C39.2036 9.92925 42.612 9.92925 43.8755 12.3079L50.448 24.6828C50.9336 25.5974 51.8138 26.2368 52.8336 26.4161L66.6339 28.843C69.2867 29.3095 70.3398 32.551 68.4678 34.4875L58.7297 44.5626C58.0101 45.3069 57.674 46.3418 57.8185 47.367L59.7751 61.2418C60.1512 63.9088 57.3935 65.9121 54.9735 64.7303L42.3822 58.5823C41.4518 58.1275 40.3638 58.1275 39.4334 58.5823L26.8423 64.7303C24.4221 65.9121 21.6646 63.9088 22.0407 61.2418L23.9972 47.367C24.1418 46.3418 23.8056 45.3069 23.0859 44.5626L13.3478 34.4875C11.4759 32.551 12.5292 29.3095 15.1818 28.843L28.9822 26.4161C30.002 26.2368 30.882 25.5972 31.3677 24.6828L37.9401 12.3079Z" stroke="#8AFEC1" stroke-width="5.04023"/>
</g>
<defs>
<clipPath id="clip0_90_7250">
<rect width="80.6437" height="80.6437" fill="white" transform="translate(0.585938)"/>
</clipPath>
</defs>
</svg>
