<svg width="98" height="98" viewBox="0 0 98 98" fill="none" xmlns="http://www.w3.org/2000/svg">
<path d="M49 98C76.062 98 98 76.062 98 49C98 21.938 76.062 0 49 0C21.938 0 0 21.938 0 49C0 76.062 21.938 98 49 98Z" fill="black"/>
<path d="M48.9951 62.3476L32.5311 52.6211L48.9951 75.8275L65.4738 52.6211L48.9951 62.3476Z" fill="white"/>
<path d="M65.4641 49.4997L48.9951 59.2311L32.5262 49.4997L48.9951 22.1724L65.4641 49.4997Z" fill="white"/>
<path d="M65.464 49.4997L48.9951 42.0125V22.1724L65.464 49.4997Z" fill="#C1CCF7"/>
<path d="M65.4738 52.6211L48.9951 75.8275V62.3476L65.4738 52.6211Z" fill="#C1CCF7"/>
<path d="M48.9951 42.0127V59.2313L32.5311 49.4999L48.9951 42.0127Z" fill="#C1CCF7"/>
<path d="M65.464 49.4999L48.9951 59.2313V42.0127L65.464 49.4999Z" fill="#8198EE"/>
</svg>
