<svg width="97" height="97" viewBox="0 0 97 97" fill="none" xmlns="http://www.w3.org/2000/svg">
<path d="M48.5 97C75.2858 97 97 75.2858 97 48.5C97 21.7142 75.2858 0 48.5 0C21.7142 0 0 21.7142 0 48.5C0 75.2858 21.7142 97 48.5 97Z" fill="#59AF99"/>
<path d="M53.5342 42.53V36.8022H66.5661V27.7666H30.3997V36.8022H43.4656V42.53C32.5191 43.0587 24.3032 45.2557 24.3032 47.865C24.3032 50.4743 32.5094 52.6811 43.4656 53.2V72.115H53.5342V53.2C64.4806 52.6762 72.6965 50.4792 72.6965 47.865C72.6965 45.2509 64.5049 43.0587 53.5342 42.53ZM48.4999 51.5316C36.6465 51.5316 27.0386 49.6983 27.0386 47.4916C27.0386 45.5952 34.0372 43.9996 43.4559 43.5728V50.0427C45.0758 50.1154 46.7587 50.1591 48.4902 50.1591C50.2216 50.1591 51.9143 50.1154 53.5245 50.0427V43.5728C62.9432 43.9996 69.9417 45.5952 69.9417 47.4916C69.9611 49.7226 60.3533 51.5316 48.4999 51.5316Z" fill="white"/>
</svg>
